<svg width="25" height="22" viewBox="0 0 25 22" fill="none" xmlns="http://www.w3.org/2000/svg">
<g clip-path="url(#clip0_1001_4256)">
<path d="M1.18555 1.38519H5.34556"  stroke-width="2" stroke-miterlimit="10" stroke-linecap="round"/>
<path d="M5.34521 1.38519L8.86521 15.4"  stroke-width="2" stroke-miterlimit="10" stroke-linecap="round"/>
<path d="M9.50537 15.4H22.7054"  stroke-width="2" stroke-miterlimit="10" stroke-linecap="round"/>
<path d="M11.1056 20.9408C12.4311 20.9408 13.5056 19.8464 13.5056 18.4963C13.5056 17.1463 12.4311 16.0519 11.1056 16.0519C9.78005 16.0519 8.70557 17.1463 8.70557 18.4963C8.70557 19.8464 9.78005 20.9408 11.1056 20.9408Z"  stroke-width="2" stroke-miterlimit="10" stroke-linecap="round"/>
<path d="M20.3053 20.9408C21.6307 20.9408 22.7053 19.8464 22.7053 18.4963C22.7053 17.1463 21.6307 16.0519 20.3053 16.0519C18.9798 16.0519 17.9053 17.1463 17.9053 18.4963C17.9053 19.8464 18.9798 20.9408 20.3053 20.9408Z"  stroke-width="2" stroke-miterlimit="10" stroke-linecap="round"/>
<path d="M20.6255 11.8963H9.10548C8.62548 11.8963 8.14548 11.5704 8.06548 11.0815L6.54548 5.62225C6.38548 4.88891 6.86547 4.23706 7.58547 4.23706H22.0655C22.7855 4.23706 23.3455 4.97039 23.1055 5.62225L21.5855 11.0815C21.5855 11.5704 21.1855 11.8963 20.6255 11.8963Z"  stroke-width="2" stroke-miterlimit="10" stroke-linecap="round"/>
</g>
<defs>
<clipPath id="clip0_1001_4256">
<rect x="0.0654297" width="24" height="22" fill="white"/>
</clipPath>
</defs>
</svg>
