<svg width="34" height="35" viewBox="0 0 34 35" fill="none" xmlns="http://www.w3.org/2000/svg">
<path d="M5.8 22.8333C2.83782 23.9627 1 25.5365 1 27.2773C1 30.714 8.16344 33.5 17 33.5C25.8366 33.5 33 30.714 33 27.2773C33 25.5365 31.1622 23.9627 28.2 22.8333M17 12.1667H17.0178M27.6667 12.1667C27.6667 19.391 19.6667 22.8333 17 28.1667C14.3333 22.8333 6.33333 19.391 6.33333 12.1667C6.33333 6.27563 11.109 1.5 17 1.5C22.891 1.5 27.6667 6.27563 27.6667 12.1667ZM18.7778 12.1667C18.7778 13.1485 17.9818 13.9444 17 13.9444C16.0182 13.9444 15.2222 13.1485 15.2222 12.1667C15.2222 11.1848 16.0182 10.3889 17 10.3889C17.9818 10.3889 18.7778 11.1848 18.7778 12.1667Z" stroke="#5D78D9" stroke-width="2" stroke-linecap="round" stroke-linejoin="round"/>
</svg>
