<svg width="42" height="43" viewBox="0 0 42 43" fill="none" xmlns="http://www.w3.org/2000/svg">
<g filter="url(#filter0_d_901_5009)">
<path d="M21.9931 19.5C21.9931 18.9477 21.5453 18.5 20.9931 18.5C20.4408 18.5 19.9931 18.9477 19.9931 19.5H21.9931ZM19.9931 24.8333C19.9931 25.3856 20.4408 25.8333 20.9931 25.8333C21.5453 25.8333 21.9931 25.3856 21.9931 24.8333H19.9931ZM20.9931 13.1667C20.4408 13.1667 19.9931 13.6144 19.9931 14.1667C19.9931 14.719 20.4408 15.1667 20.9931 15.1667V13.1667ZM21.0108 15.1667C21.5631 15.1667 22.0108 14.719 22.0108 14.1667C22.0108 13.6144 21.5631 13.1667 21.0108 13.1667V15.1667ZM6.66384 26.6125L7.55931 26.1674L6.66384 26.6125ZM5.00129 35.5L4.07814 35.1155C3.94961 35.4242 3.98381 35.7766 4.16928 36.0548C4.35476 36.3329 4.66696 36.5 5.00129 36.5V35.5ZM19.9931 19.5V24.8333H21.9931V19.5H19.9931ZM20.9931 15.1667H21.0108V13.1667H20.9931V15.1667ZM36 19.5C36 27.7843 29.2843 34.5 21 34.5V36.5C30.3888 36.5 38 28.8888 38 19.5H36ZM6 19.5C6 11.2157 12.7157 4.5 21 4.5V2.5C11.6112 2.5 4 10.1112 4 19.5H6ZM21 4.5C29.2843 4.5 36 11.2157 36 19.5H38C38 10.1112 30.3888 2.5 21 2.5V4.5ZM7.55931 26.1674C6.56153 24.1601 6 21.8971 6 19.5H4C4 22.2128 4.63617 24.7799 5.76837 27.0576L7.55931 26.1674ZM21 34.5C20.9929 34.5 20.9858 34.5 20.9787 34.5C20.9715 34.5 20.9644 34.5 20.9572 34.5C20.95 34.5 20.9427 34.5 20.9355 34.5C20.9282 34.5 20.9209 34.5 20.9136 34.5C20.9062 34.5 20.8988 34.5 20.8914 34.5C20.884 34.5 20.8766 34.5 20.8691 34.5C20.8617 34.5 20.8542 34.5 20.8466 34.5C20.8391 34.5 20.8316 34.5 20.824 34.5C20.8164 34.5 20.8087 34.5 20.8011 34.5C20.7934 34.5 20.7857 34.5 20.778 34.5C20.7703 34.5 20.7625 34.5 20.7547 34.5C20.747 34.5 20.7391 34.5 20.7313 34.5C20.7234 34.5 20.7156 34.5 20.7076 34.5C20.6997 34.5 20.6918 34.5 20.6838 34.5C20.6758 34.5 20.6678 34.5 20.6598 34.5C20.6517 34.5 20.6437 34.5 20.6356 34.5C20.6275 34.5 20.6193 34.5 20.6112 34.5C20.603 34.5 20.5948 34.5 20.5866 34.5C20.5784 34.5 20.5701 34.5 20.5619 34.5C20.5536 34.5 20.5453 34.5 20.5369 34.5C20.5286 34.5 20.5202 34.5 20.5118 34.5C20.5034 34.5 20.4949 34.5 20.4865 34.5C20.478 34.5 20.4695 34.5 20.461 34.5C20.4525 34.5 20.4439 34.5 20.4353 34.5C20.4268 34.5 20.4181 34.5 20.4095 34.5C20.4009 34.5 20.3922 34.5 20.3835 34.5C20.3748 34.5 20.366 34.5 20.3573 34.5C20.3485 34.5 20.3397 34.5 20.3309 34.5C20.3221 34.5 20.3133 34.5 20.3044 34.5C20.2955 34.5 20.2866 34.5 20.2777 34.5C20.2687 34.5 20.2598 34.5 20.2508 34.5C20.2418 34.5 20.2328 34.5 20.2237 34.5C20.2147 34.5 20.2056 34.5 20.1965 34.5C20.1874 34.5 20.1783 34.5 20.1691 34.5C20.1599 34.5 20.1507 34.5 20.1415 34.5C20.1323 34.5 20.1231 34.5 20.1138 34.5C20.1045 34.5 20.0952 34.5 20.0859 34.5C20.0766 34.5 20.0672 34.5 20.0578 34.5C20.0484 34.5 20.039 34.5 20.0296 34.5C20.0202 34.5 20.0107 34.5 20.0012 34.5C19.9917 34.5 19.9822 34.5 19.9726 34.5C19.9631 34.5 19.9535 34.5 19.9439 34.5C19.9343 34.5 19.9247 34.5 19.9151 34.5C19.9054 34.5 19.8957 34.5 19.886 34.5C19.8763 34.5 19.8666 34.5 19.8568 34.5C19.8471 34.5 19.8373 34.5 19.8275 34.5C19.8176 34.5 19.8078 34.5 19.7979 34.5C19.7881 34.5 19.7782 34.5 19.7683 34.5C19.7584 34.5 19.7484 34.5 19.7385 34.5C19.7285 34.5 19.7185 34.5 19.7085 34.5C19.6985 34.5 19.6884 34.5 19.6783 34.5C19.6683 34.5 19.6582 34.5 19.6481 34.5C19.6379 34.5 19.6278 34.5 19.6176 34.5C19.6075 34.5 19.5973 34.5 19.587 34.5C19.5768 34.5 19.5666 34.5 19.5563 34.5C19.546 34.5 19.5357 34.5 19.5254 34.5C19.5151 34.5 19.5048 34.5 19.4944 34.5C19.484 34.5 19.4736 34.5 19.4632 34.5C19.4528 34.5 19.4424 34.5 19.4319 34.5C19.4214 34.5 19.4109 34.5 19.4004 34.5C19.3899 34.5 19.3794 34.5 19.3688 34.5C19.3583 34.5 19.3477 34.5 19.3371 34.5C19.3265 34.5 19.3158 34.5 19.3052 34.5C19.2945 34.5 19.2838 34.5 19.2731 34.5C19.2624 34.5 19.2517 34.5 19.241 34.5C19.2302 34.5 19.2194 34.5 19.2086 34.5C19.1978 34.5 19.187 34.5 19.1762 34.5C19.1653 34.5 19.1545 34.5 19.1436 34.5C19.1327 34.5 19.1218 34.5 19.1109 34.5C19.0999 34.5 19.089 34.5 19.078 34.5C19.067 34.5 19.056 34.5 19.045 34.5C19.034 34.5 19.0229 34.5 19.0119 34.5C19.0008 34.5 18.9897 34.5 18.9786 34.5C18.9675 34.5 18.9564 34.5 18.9452 34.5C18.9341 34.5 18.9229 34.5 18.9117 34.5C18.9005 34.5 18.8893 34.5 18.878 34.5C18.8668 34.5 18.8555 34.5 18.8443 34.5C18.833 34.5 18.8217 34.5 18.8104 34.5C18.799 34.5 18.7877 34.5 18.7763 34.5C18.7649 34.5 18.7536 34.5 18.7422 34.5C18.7307 34.5 18.7193 34.5 18.7079 34.5C18.6964 34.5 18.6849 34.5 18.6735 34.5C18.662 34.5 18.6505 34.5 18.6389 34.5C18.6274 34.5 18.6158 34.5 18.6043 34.5C18.5927 34.5 18.5811 34.5 18.5695 34.5C18.5579 34.5 18.5462 34.5 18.5346 34.5C18.5229 34.5 18.5113 34.5 18.4996 34.5C18.4879 34.5 18.4762 34.5 18.4644 34.5C18.4527 34.5 18.441 34.5 18.4292 34.5C18.4174 34.5 18.4056 34.5 18.3938 34.5C18.382 34.5 18.3702 34.5 18.3583 34.5C18.3465 34.5 18.3346 34.5 18.3227 34.5C18.3108 34.5 18.2989 34.5 18.287 34.5C18.2751 34.5 18.2632 34.5 18.2512 34.5C18.2392 34.5 18.2273 34.5 18.2153 34.5C18.2033 34.5 18.1912 34.5 18.1792 34.5C18.1672 34.5 18.1551 34.5 18.143 34.5C18.131 34.5 18.1189 34.5 18.1068 34.5C18.0947 34.5 18.0826 34.5 18.0704 34.5C18.0583 34.5 18.0461 34.5 18.0339 34.5C18.0217 34.5 18.0096 34.5 17.9973 34.5C17.9851 34.5 17.9729 34.5 17.9606 34.5C17.9484 34.5 17.9361 34.5 17.9239 34.5C17.9116 34.5 17.8993 34.5 17.887 34.5C17.8746 34.5 17.8623 34.5 17.85 34.5C17.8376 34.5 17.8252 34.5 17.8128 34.5C17.8005 34.5 17.7881 34.5 17.7756 34.5C17.7632 34.5 17.7508 34.5 17.7383 34.5C17.7259 34.5 17.7134 34.5 17.7009 34.5C17.6885 34.5 17.676 34.5 17.6634 34.5C17.6509 34.5 17.6384 34.5 17.6259 34.5C17.6133 34.5 17.6007 34.5 17.5882 34.5C17.5756 34.5 17.563 34.5 17.5504 34.5C17.5378 34.5 17.5251 34.5 17.5125 34.5C17.4999 34.5 17.4872 34.5 17.4745 34.5C17.4619 34.5 17.4492 34.5 17.4365 34.5C17.4238 34.5 17.411 34.5 17.3983 34.5C17.3856 34.5 17.3728 34.5 17.3601 34.5C17.3473 34.5 17.3345 34.5 17.3217 34.5C17.3089 34.5 17.2961 34.5 17.2833 34.5C17.2705 34.5 17.2577 34.5 17.2448 34.5C17.232 34.5 17.2191 34.5 17.2062 34.5C17.1933 34.5 17.1804 34.5 17.1675 34.5C17.1546 34.5 17.1417 34.5 17.1288 34.5C17.1158 34.5 17.1029 34.5 17.0899 34.5C17.077 34.5 17.064 34.5 17.051 34.5C17.038 34.5 17.025 34.5 17.012 34.5C16.999 34.5 16.9859 34.5 16.9729 34.5C16.9598 34.5 16.9468 34.5 16.9337 34.5C16.9207 34.5 16.9076 34.5 16.8945 34.5C16.8814 34.5 16.8683 34.5 16.8551 34.5C16.842 34.5 16.8289 34.5 16.8157 34.5C16.8026 34.5 16.7894 34.5 16.7763 34.5C16.7631 34.5 16.7499 34.5 16.7367 34.5C16.7235 34.5 16.7103 34.5 16.6971 34.5C16.6839 34.5 16.6706 34.5 16.6574 34.5C16.6441 34.5 16.6309 34.5 16.6176 34.5C16.6043 34.5 16.5911 34.5 16.5778 34.5C16.5645 34.5 16.5512 34.5 16.5379 34.5C16.5245 34.5 16.5112 34.5 16.4979 34.5C16.4845 34.5 16.4712 34.5 16.4578 34.5C16.4445 34.5 16.4311 34.5 16.4177 34.5C16.4043 34.5 16.3909 34.5 16.3775 34.5C16.3641 34.5 16.3507 34.5 16.3373 34.5C16.3238 34.5 16.3104 34.5 16.297 34.5C16.2835 34.5 16.27 34.5 16.2566 34.5C16.2431 34.5 16.2296 34.5 16.2161 34.5C16.2026 34.5 16.1891 34.5 16.1756 34.5C16.1621 34.5 16.1486 34.5 16.1351 34.5C16.1215 34.5 16.108 34.5 16.0944 34.5C16.0809 34.5 16.0673 34.5 16.0538 34.5C16.0402 34.5 16.0266 34.5 16.013 34.5C15.9994 34.5 15.9858 34.5 15.9722 34.5C15.9586 34.5 15.945 34.5 15.9314 34.5C15.9178 34.5 15.9041 34.5 15.8905 34.5C15.8768 34.5 15.8632 34.5 15.8495 34.5C15.8359 34.5 15.8222 34.5 15.8085 34.5C15.7948 34.5 15.7811 34.5 15.7674 34.5C15.7537 34.5 15.74 34.5 15.7263 34.5C15.7126 34.5 15.6989 34.5 15.6852 34.5C15.6714 34.5 15.6577 34.5 15.6439 34.5C15.6302 34.5 15.6164 34.5 15.6027 34.5C15.5889 34.5 15.5751 34.5 15.5614 34.5C15.5476 34.5 15.5338 34.5 15.52 34.5C15.5062 34.5 15.4924 34.5 15.4786 34.5C15.4648 34.5 15.451 34.5 15.4372 34.5C15.4233 34.5 15.4095 34.5 15.3957 34.5C15.3818 34.5 15.368 34.5 15.3541 34.5C15.3403 34.5 15.3264 34.5 15.3126 34.5C15.2987 34.5 15.2848 34.5 15.2709 34.5C15.2571 34.5 15.2432 34.5 15.2293 34.5C15.2154 34.5 15.2015 34.5 15.1876 34.5C15.1737 34.5 15.1598 34.5 15.1459 34.5C15.1319 34.5 15.118 34.5 15.1041 34.5C15.0901 34.5 15.0762 34.5 15.0623 34.5C15.0483 34.5 15.0344 34.5 15.0204 34.5C15.0065 34.5 14.9925 34.5 14.9786 34.5C14.9646 34.5 14.9506 34.5 14.9366 34.5C14.9227 34.5 14.9087 34.5 14.8947 34.5C14.8807 34.5 14.8667 34.5 14.8527 34.5C14.8387 34.5 14.8247 34.5 14.8107 34.5C14.7967 34.5 14.7827 34.5 14.7687 34.5C14.7547 34.5 14.7407 34.5 14.7266 34.5C14.7126 34.5 14.6986 34.5 14.6845 34.5C14.6705 34.5 14.6565 34.5 14.6424 34.5C14.6284 34.5 14.6143 34.5 14.6003 34.5C14.5862 34.5 14.5722 34.5 14.5581 34.5C14.5441 34.5 14.53 34.5 14.5159 34.5C14.5019 34.5 14.4878 34.5 14.4737 34.5C14.4597 34.5 14.4456 34.5 14.4315 34.5C14.4174 34.5 14.4033 34.5 14.3892 34.5C14.3751 34.5 14.3611 34.5 14.347 34.5C14.3329 34.5 14.3188 34.5 14.3047 34.5C14.2906 34.5 14.2765 34.5 14.2624 34.5C14.2482 34.5 14.2341 34.5 14.22 34.5C14.2059 34.5 14.1918 34.5 14.1777 34.5C14.1636 34.5 14.1494 34.5 14.1353 34.5C14.1212 34.5 14.1071 34.5 14.0929 34.5C14.0788 34.5 14.0647 34.5 14.0506 34.5C14.0364 34.5 14.0223 34.5 14.0082 34.5C13.994 34.5 13.9799 34.5 13.9657 34.5C13.9516 34.5 13.9375 34.5 13.9233 34.5C13.9092 34.5 13.895 34.5 13.8809 34.5C13.8667 34.5 13.8526 34.5 13.8384 34.5C13.8243 34.5 13.8102 34.5 13.796 34.5C13.7818 34.5 13.7677 34.5 13.7535 34.5C13.7394 34.5 13.7252 34.5 13.7111 34.5C13.6969 34.5 13.6828 34.5 13.6686 34.5C13.6545 34.5 13.6403 34.5 13.6261 34.5C13.612 34.5 13.5978 34.5 13.5837 34.5C13.5695 34.5 13.5554 34.5 13.5412 34.5C13.527 34.5 13.5129 34.5 13.4987 34.5C13.4846 34.5 13.4704 34.5 13.4562 34.5C13.4421 34.5 13.4279 34.5 13.4138 34.5C13.3996 34.5 13.3855 34.5 13.3713 34.5C13.3571 34.5 13.343 34.5 13.3288 34.5C13.3147 34.5 13.3005 34.5 13.2864 34.5C13.2722 34.5 13.258 34.5 13.2439 34.5C13.2297 34.5 13.2156 34.5 13.2014 34.5C13.1873 34.5 13.1731 34.5 13.159 34.5C13.1448 34.5 13.1307 34.5 13.1165 34.5C13.1024 34.5 13.0883 34.5 13.0741 34.5C13.06 34.5 13.0458 34.5 13.0317 34.5C13.0175 34.5 13.0034 34.5 12.9893 34.5C12.9751 34.5 12.961 34.5 12.9469 34.5C12.9327 34.5 12.9186 34.5 12.9045 34.5C12.8903 34.5 12.8762 34.5 12.8621 34.5C12.848 34.5 12.8338 34.5 12.8197 34.5C12.8056 34.5 12.7915 34.5 12.7774 34.5C12.7633 34.5 12.7492 34.5 12.735 34.5C12.7209 34.5 12.7068 34.5 12.6927 34.5C12.6786 34.5 12.6645 34.5 12.6504 34.5C12.6363 34.5 12.6222 34.5 12.6081 34.5C12.5941 34.5 12.58 34.5 12.5659 34.5C12.5518 34.5 12.5377 34.5 12.5236 34.5C12.5096 34.5 12.4955 34.5 12.4814 34.5C12.4674 34.5 12.4533 34.5 12.4392 34.5C12.4252 34.5 12.4111 34.5 12.3971 34.5C12.383 34.5 12.369 34.5 12.3549 34.5C12.3409 34.5 12.3268 34.5 12.3128 34.5C12.2987 34.5 12.2847 34.5 12.2707 34.5C12.2567 34.5 12.2426 34.5 12.2286 34.5C12.2146 34.5 12.2006 34.5 12.1866 34.5C12.1726 34.5 12.1586 34.5 12.1446 34.5C12.1306 34.5 12.1166 34.5 12.1026 34.5C12.0886 34.5 12.0746 34.5 12.0606 34.5C12.0467 34.5 12.0327 34.5 12.0187 34.5C12.0047 34.5 11.9908 34.5 11.9768 34.5C11.9629 34.5 11.9489 34.5 11.935 34.5C11.921 34.5 11.9071 34.5 11.8932 34.5C11.8792 34.5 11.8653 34.5 11.8514 34.5C11.8375 34.5 11.8235 34.5 11.8096 34.5C11.7957 34.5 11.7818 34.5 11.7679 34.5C11.754 34.5 11.7401 34.5 11.7263 34.5C11.7124 34.5 11.6985 34.5 11.6846 34.5C11.6708 34.5 11.6569 34.5 11.643 34.5C11.6292 34.5 11.6153 34.5 11.6015 34.5C11.5876 34.5 11.5738 34.5 11.56 34.5C11.5462 34.5 11.5323 34.5 11.5185 34.5C11.5047 34.5 11.4909 34.5 11.4771 34.5C11.4633 34.5 11.4495 34.5 11.4357 34.5C11.422 34.5 11.4082 34.5 11.3944 34.5C11.3806 34.5 11.3669 34.5 11.3531 34.5C11.3394 34.5 11.3256 34.5 11.3119 34.5C11.2982 34.5 11.2844 34.5 11.2707 34.5C11.257 34.5 11.2433 34.5 11.2296 34.5C11.2159 34.5 11.2022 34.5 11.1885 34.5C11.1748 34.5 11.1611 34.5 11.1475 34.5C11.1338 34.5 11.1201 34.5 11.1065 34.5C11.0928 34.5 11.0792 34.5 11.0656 34.5C11.0519 34.5 11.0383 34.5 11.0247 34.5C11.0111 34.5 10.9975 34.5 10.9839 34.5C10.9703 34.5 10.9567 34.5 10.9431 34.5C10.9296 34.5 10.916 34.5 10.9024 34.5C10.8889 34.5 10.8753 34.5 10.8618 34.5C10.8483 34.5 10.8347 34.5 10.8212 34.5C10.8077 34.5 10.7942 34.5 10.7807 34.5C10.7672 34.5 10.7537 34.5 10.7402 34.5C10.7268 34.5 10.7133 34.5 10.6998 34.5C10.6864 34.5 10.6729 34.5 10.6595 34.5C10.6461 34.5 10.6327 34.5 10.6192 34.5C10.6058 34.5 10.5924 34.5 10.579 34.5C10.5656 34.5 10.5523 34.5 10.5389 34.5C10.5255 34.5 10.5122 34.5 10.4988 34.5C10.4855 34.5 10.4721 34.5 10.4588 34.5C10.4455 34.5 10.4322 34.5 10.4189 34.5C10.4056 34.5 10.3923 34.5 10.379 34.5C10.3657 34.5 10.3525 34.5 10.3392 34.5C10.326 34.5 10.3127 34.5 10.2995 34.5C10.2863 34.5 10.2731 34.5 10.2599 34.5C10.2467 34.5 10.2335 34.5 10.2203 34.5C10.2071 34.5 10.1939 34.5 10.1808 34.5C10.1676 34.5 10.1545 34.5 10.1414 34.5C10.1282 34.5 10.1151 34.5 10.102 34.5C10.0889 34.5 10.0758 34.5 10.0627 34.5C10.0497 34.5 10.0366 34.5 10.0235 34.5C10.0105 34.5 9.99745 34.5 9.98442 34.5C9.9714 34.5 9.95838 34.5 9.94539 34.5C9.93239 34.5 9.9194 34.5 9.90643 34.5C9.89346 34.5 9.8805 34.5 9.86756 34.5C9.85462 34.5 9.84169 34.5 9.82877 34.5C9.81586 34.5 9.80295 34.5 9.79007 34.5C9.77718 34.5 9.76431 34.5 9.75145 34.5C9.73859 34.5 9.72574 34.5 9.71291 34.5C9.70008 34.5 9.68727 34.5 9.67447 34.5C9.66166 34.5 9.64888 34.5 9.63611 34.5C9.62333 34.5 9.61058 34.5 9.59784 34.5C9.58509 34.5 9.57237 34.5 9.55965 34.5C9.54694 34.5 9.53424 34.5 9.52156 34.5C9.50888 34.5 9.49621 34.5 9.48356 34.5C9.47091 34.5 9.45828 34.5 9.44566 34.5C9.43304 34.5 9.42043 34.5 9.40784 34.5C9.39525 34.5 9.38268 34.5 9.37012 34.5C9.35757 34.5 9.34503 34.5 9.3325 34.5C9.31998 34.5 9.30747 34.5 9.29497 34.5C9.28248 34.5 9.27 34.5 9.25754 34.5C9.24508 34.5 9.23264 34.5 9.22021 34.5C9.20778 34.5 9.19537 34.5 9.18298 34.5C9.17058 34.5 9.15821 34.5 9.14584 34.5C9.13348 34.5 9.12114 34.5 9.10881 34.5C9.09649 34.5 9.08417 34.5 9.07188 34.5C9.05959 34.5 9.04731 34.5 9.03505 34.5C9.0228 34.5 9.01055 34.5 8.99833 34.5C8.98611 34.5 8.9739 34.5 8.96171 34.5C8.94952 34.5 8.93735 34.5 8.9252 34.5C8.91305 34.5 8.90091 34.5 8.88879 34.5C8.87667 34.5 8.86457 34.5 8.85249 34.5C8.84041 34.5 8.82835 34.5 8.8163 34.5C8.80426 34.5 8.79223 34.5 8.78022 34.5C8.76821 34.5 8.75622 34.5 8.74425 34.5C8.73228 34.5 8.72033 34.5 8.70839 34.5C8.69646 34.5 8.68454 34.5 8.67264 34.5C8.66075 34.5 8.64887 34.5 8.63701 34.5C8.62515 34.5 8.61331 34.5 8.60149 34.5C8.58967 34.5 8.57787 34.5 8.56609 34.5C8.5543 34.5 8.54254 34.5 8.5308 34.5C8.51906 34.5 8.50733 34.5 8.49563 34.5C8.48392 34.5 8.47224 34.5 8.46057 34.5C8.44891 34.5 8.43726 34.5 8.42564 34.5C8.41401 34.5 8.40241 34.5 8.39082 34.5C8.37924 34.5 8.36768 34.5 8.35613 34.5C8.34459 34.5 8.33306 34.5 8.32156 34.5C8.31006 34.5 8.29857 34.5 8.28711 34.5C8.27565 34.5 8.2642 34.5 8.25278 34.5C8.24136 34.5 8.22996 34.5 8.21858 34.5C8.2072 34.5 8.19584 34.5 8.18451 34.5C8.17317 34.5 8.16185 34.5 8.15056 34.5C8.13926 34.5 8.12799 34.5 8.11674 34.5C8.10548 34.5 8.09425 34.5 8.08304 34.5C8.07183 34.5 8.06064 34.5 8.04948 34.5C8.03831 34.5 8.02717 34.5 8.01604 34.5C8.00492 34.5 7.99382 34.5 7.98274 34.5C7.97166 34.5 7.96061 34.5 7.94957 34.5C7.93854 34.5 7.92752 34.5 7.91653 34.5C7.90554 34.5 7.89458 34.5 7.88363 34.5C7.87269 34.5 7.86176 34.5 7.85086 34.5C7.83996 34.5 7.82908 34.5 7.81823 34.5C7.80738 34.5 7.79654 34.5 7.78573 34.5C7.77493 34.5 7.76414 34.5 7.75338 34.5C7.74261 34.5 7.73187 34.5 7.72116 34.5C7.71044 34.5 7.69975 34.5 7.68908 34.5C7.67841 34.5 7.66776 34.5 7.65714 34.5C7.64652 34.5 7.63592 34.5 7.62534 34.5C7.61477 34.5 7.60422 34.5 7.59369 34.5C7.58316 34.5 7.57266 34.5 7.56218 34.5C7.5517 34.5 7.54124 34.5 7.53081 34.5C7.52038 34.5 7.50997 34.5 7.49959 34.5C7.48921 34.5 7.47885 34.5 7.46851 34.5C7.45818 34.5 7.44787 34.5 7.43759 34.5C7.4273 34.5 7.41704 34.5 7.40681 34.5C7.39657 34.5 7.38636 34.5 7.37618 34.5C7.36599 34.5 7.35583 34.5 7.3457 34.5C7.33556 34.5 7.32545 34.5 7.31537 34.5C7.30528 34.5 7.29522 34.5 7.28519 34.5C7.27516 34.5 7.26515 34.5 7.25516 34.5C7.24518 34.5 7.23522 34.5 7.22529 34.5C7.21536 34.5 7.20546 34.5 7.19558 34.5C7.1857 34.5 7.17585 34.5 7.16602 34.5C7.15619 34.5 7.14639 34.5 7.13662 34.5C7.12684 34.5 7.11709 34.5 7.10737 34.5C7.09765 34.5 7.08795 34.5 7.07828 34.5C7.06861 34.5 7.05897 34.5 7.04936 34.5C7.03974 34.5 7.03015 34.5 7.02059 34.5C7.01103 34.5 7.00149 34.5 6.99198 34.5C6.98247 34.5 6.97299 34.5 6.96354 34.5C6.95409 34.5 6.94466 34.5 6.93526 34.5C6.92586 34.5 6.91649 34.5 6.90714 34.5C6.8978 34.5 6.88848 34.5 6.87919 34.5C6.8699 34.5 6.86064 34.5 6.85141 34.5C6.84218 34.5 6.83297 34.5 6.82379 34.5C6.81461 34.5 6.80546 34.5 6.79634 34.5C6.78722 34.5 6.77813 34.5 6.76906 34.5C6.76 34.5 6.75096 34.5 6.74195 34.5C6.73294 34.5 6.72397 34.5 6.71501 34.5C6.70606 34.5 6.69714 34.5 6.68825 34.5C6.67935 34.5 6.67049 34.5 6.66165 34.5C6.65282 34.5 6.64401 34.5 6.63523 34.5C6.62645 34.5 6.6177 34.5 6.60898 34.5C6.60027 34.5 6.59157 34.5 6.58291 34.5C6.57425 34.5 6.56562 34.5 6.55702 34.5C6.54842 34.5 6.53985 34.5 6.5313 34.5C6.52276 34.5 6.51425 34.5 6.50576 34.5C6.49728 34.5 6.48883 34.5 6.48041 34.5C6.47198 34.5 6.46359 34.5 6.45523 34.5C6.44686 34.5 6.43853 34.5 6.43023 34.5C6.42193 34.5 6.41366 34.5 6.40542 34.5C6.39717 34.5 6.38896 34.5 6.38078 34.5C6.3726 34.5 6.36445 34.5 6.35634 34.5C6.34822 34.5 6.34013 34.5 6.33207 34.5C6.32402 34.5 6.31599 34.5 6.308 34.5C6.3 34.5 6.29204 34.5 6.28411 34.5C6.27617 34.5 6.26827 34.5 6.2604 34.5C6.25254 34.5 6.2447 34.5 6.23689 34.5C6.22909 34.5 6.22131 34.5 6.21357 34.5C6.20583 34.5 6.19812 34.5 6.19044 34.5C6.18276 34.5 6.17511 34.5 6.1675 34.5C6.15988 34.5 6.1523 34.5 6.14475 34.5C6.1372 34.5 6.12968 34.5 6.12219 34.5C6.11471 34.5 6.10725 34.5 6.09983 34.5C6.09241 34.5 6.08502 34.5 6.07767 34.5C6.07031 34.5 6.06299 34.5 6.0557 34.5C6.04841 34.5 6.04115 34.5 6.03393 34.5C6.0267 34.5 6.01951 34.5 6.01236 34.5C6.0052 34.5 5.99807 34.5 5.99098 34.5C5.98389 34.5 5.97683 34.5 5.96981 34.5C5.96278 34.5 5.95579 34.5 5.94884 34.5C5.94188 34.5 5.93496 34.5 5.92807 34.5C5.92118 34.5 5.91432 34.5 5.9075 34.5C5.90068 34.5 5.89389 34.5 5.88714 34.5C5.88038 34.5 5.87366 34.5 5.86698 34.5C5.86029 34.5 5.85364 34.5 5.84703 34.5C5.84041 34.5 5.83383 34.5 5.82728 34.5C5.82073 34.5 5.81422 34.5 5.80774 34.5C5.80126 34.5 5.79482 34.5 5.78841 34.5C5.782 34.5 5.77563 34.5 5.76929 34.5C5.76295 34.5 5.75665 34.5 5.75038 34.5C5.74412 34.5 5.73788 34.5 5.73169 34.5C5.72549 34.5 5.71933 34.5 5.7132 34.5C5.70707 34.5 5.70098 34.5 5.69493 34.5C5.68887 34.5 5.68285 34.5 5.67687 34.5C5.67089 34.5 5.66494 34.5 5.65903 34.5C5.65312 34.5 5.64724 34.5 5.6414 34.5C5.63556 34.5 5.62976 34.5 5.62399 34.5C5.61823 34.5 5.6125 34.5 5.6068 34.5C5.60111 34.5 5.59545 34.5 5.58983 34.5C5.58421 34.5 5.57863 34.5 5.57308 34.5C5.56753 34.5 5.56202 34.5 5.55655 34.5C5.55108 34.5 5.54564 34.5 5.54024 34.5C5.53484 34.5 5.52948 34.5 5.52416 34.5C5.51883 34.5 5.51354 34.5 5.50829 34.5C5.50304 34.5 5.49783 34.5 5.49266 34.5C5.48748 34.5 5.48235 34.5 5.47725 34.5C5.47215 34.5 5.46708 34.5 5.46206 34.5C5.45704 34.5 5.45205 34.5 5.4471 34.5C5.44216 34.5 5.43725 34.5 5.43237 34.5C5.4275 34.5 5.42267 34.5 5.41788 34.5C5.41308 34.5 5.40832 34.5 5.40361 34.5C5.39889 34.5 5.39421 34.5 5.38957 34.5C5.38493 34.5 5.38033 34.5 5.37576 34.5C5.3712 34.5 5.36668 34.5 5.36219 34.5C5.35771 34.5 5.35326 34.5 5.34885 34.5C5.34445 34.5 5.34008 34.5 5.33575 34.5C5.33142 34.5 5.32713 34.5 5.32288 34.5C5.31863 34.5 5.31442 34.5 5.31025 34.5C5.30608 34.5 5.30195 34.5 5.29786 34.5C5.29377 34.5 5.28972 34.5 5.28571 34.5C5.2817 34.5 5.27773 34.5 5.2738 34.5C5.26987 34.5 5.26597 34.5 5.26212 34.5C5.25827 34.5 5.25446 34.5 5.25069 34.5C5.24692 34.5 5.24319 34.5 5.23951 34.5C5.23582 34.5 5.23217 34.5 5.22856 34.5C5.22495 34.5 5.22139 34.5 5.21786 34.5C5.21434 34.5 5.21085 34.5 5.20741 34.5C5.20397 34.5 5.20056 34.5 5.1972 34.5C5.19384 34.5 5.19052 34.5 5.18724 34.5C5.18396 34.5 5.18073 34.5 5.17753 34.5C5.17433 34.5 5.17118 34.5 5.16807 34.5C5.16495 34.5 5.16188 34.5 5.15885 34.5C5.15583 34.5 5.15284 34.5 5.14989 34.5C5.14695 34.5 5.14405 34.5 5.14119 34.5C5.13832 34.5 5.13551 34.5 5.13273 34.5C5.12995 34.5 5.12722 34.5 5.12453 34.5C5.12184 34.5 5.11919 34.5 5.11658 34.5C5.11397 34.5 5.11141 34.5 5.10889 34.5C5.10637 34.5 5.10389 34.5 5.10146 34.5C5.09902 34.5 5.09663 34.5 5.09428 34.5C5.09193 34.5 5.08962 34.5 5.08736 34.5C5.0851 34.5 5.08288 34.5 5.0807 34.5C5.07853 34.5 5.0764 34.5 5.07431 34.5C5.07222 34.5 5.07017 34.5 5.06817 34.5C5.06617 34.5 5.06421 34.5 5.0623 34.5C5.06039 34.5 5.05852 34.5 5.05669 34.5C5.05486 34.5 5.05308 34.5 5.05134 34.5C5.04961 34.5 5.04791 34.5 5.04626 34.5C5.04462 34.5 5.04301 34.5 5.04145 34.5C5.03989 34.5 5.03838 34.5 5.03691 34.5C5.03543 34.5 5.03401 34.5 5.03263 34.5C5.03125 34.5 5.02991 34.5 5.02862 34.5C5.02733 34.5 5.02608 34.5 5.02488 34.5C5.02368 34.5 5.02252 34.5 5.02141 34.5C5.0203 34.5 5.01924 34.5 5.01822 34.5C5.0172 34.5 5.01622 34.5 5.01529 34.5C5.01437 34.5 5.01348 34.5 5.01265 34.5C5.01181 34.5 5.01102 34.5 5.01027 34.5C5.00953 34.5 5.00883 34.5 5.00817 34.5C5.00752 34.5 5.00691 34.5 5.00635 34.5C5.00579 34.5 5.00528 34.5 5.00481 34.5C5.00434 34.5 5.00392 34.5 5.00354 34.5C5.00317 34.5 5.00284 34.5 5.00256 34.5C5.00227 34.5 5.00204 34.5 5.00185 34.5C5.00166 34.5 5.00152 34.5 5.00143 34.5C5.00133 34.5 5.00129 34.5 5.00129 35.5C5.00129 36.5 5.00133 36.5 5.00143 36.5C5.00152 36.5 5.00166 36.5 5.00185 36.5C5.00204 36.5 5.00227 36.5 5.00256 36.5C5.00284 36.5 5.00317 36.5 5.00354 36.5C5.00392 36.5 5.00434 36.5 5.00481 36.5C5.00528 36.5 5.00579 36.5 5.00635 36.5C5.00691 36.5 5.00752 36.5 5.00817 36.5C5.00883 36.5 5.00953 36.5 5.01027 36.5C5.01102 36.5 5.01181 36.5 5.01265 36.5C5.01348 36.5 5.01437 36.5 5.01529 36.5C5.01622 36.5 5.0172 36.5 5.01822 36.5C5.01924 36.5 5.0203 36.5 5.02141 36.5C5.02252 36.5 5.02368 36.5 5.02488 36.5C5.02608 36.5 5.02733 36.5 5.02862 36.5C5.02991 36.5 5.03125 36.5 5.03263 36.5C5.03401 36.5 5.03543 36.5 5.03691 36.5C5.03838 36.5 5.03989 36.5 5.04145 36.5C5.04301 36.5 5.04462 36.5 5.04626 36.5C5.04791 36.5 5.04961 36.5 5.05134 36.5C5.05308 36.5 5.05486 36.5 5.05669 36.5C5.05852 36.5 5.06039 36.5 5.0623 36.5C5.06421 36.5 5.06617 36.5 5.06817 36.5C5.07017 36.5 5.07222 36.5 5.07431 36.5C5.0764 36.5 5.07853 36.5 5.0807 36.5C5.08288 36.5 5.0851 36.5 5.08736 36.5C5.08962 36.5 5.09193 36.5 5.09428 36.5C5.09663 36.5 5.09902 36.5 5.10146 36.5C5.10389 36.5 5.10637 36.5 5.10889 36.5C5.11141 36.5 5.11397 36.5 5.11658 36.5C5.11919 36.5 5.12184 36.5 5.12453 36.5C5.12722 36.5 5.12995 36.5 5.13273 36.5C5.13551 36.5 5.13832 36.5 5.14119 36.5C5.14405 36.5 5.14695 36.5 5.14989 36.5C5.15284 36.5 5.15583 36.5 5.15885 36.5C5.16188 36.5 5.16495 36.5 5.16807 36.5C5.17118 36.5 5.17433 36.5 5.17753 36.5C5.18073 36.5 5.18396 36.5 5.18724 36.5C5.19052 36.5 5.19384 36.5 5.1972 36.5C5.20056 36.5 5.20397 36.5 5.20741 36.5C5.21085 36.5 5.21434 36.5 5.21786 36.5C5.22139 36.5 5.22495 36.5 5.22856 36.5C5.23217 36.5 5.23582 36.5 5.23951 36.5C5.24319 36.5 5.24692 36.5 5.25069 36.5C5.25446 36.5 5.25827 36.5 5.26212 36.5C5.26597 36.5 5.26987 36.5 5.2738 36.5C5.27773 36.5 5.2817 36.5 5.28571 36.5C5.28972 36.5 5.29377 36.5 5.29786 36.5C5.30195 36.5 5.30608 36.5 5.31025 36.5C5.31442 36.5 5.31863 36.5 5.32288 36.5C5.32713 36.5 5.33142 36.5 5.33575 36.5C5.34008 36.5 5.34445 36.5 5.34885 36.5C5.35326 36.5 5.35771 36.5 5.36219 36.5C5.36668 36.5 5.3712 36.5 5.37576 36.5C5.38033 36.5 5.38493 36.5 5.38957 36.5C5.39421 36.5 5.39889 36.5 5.40361 36.5C5.40832 36.5 5.41308 36.5 5.41788 36.5C5.42267 36.5 5.4275 36.5 5.43237 36.5C5.43725 36.5 5.44216 36.5 5.4471 36.5C5.45205 36.5 5.45704 36.5 5.46206 36.5C5.46708 36.5 5.47215 36.5 5.47725 36.5C5.48235 36.5 5.48748 36.5 5.49266 36.5C5.49783 36.5 5.50304 36.5 5.50829 36.5C5.51354 36.5 5.51883 36.5 5.52416 36.5C5.52948 36.5 5.53484 36.5 5.54024 36.5C5.54564 36.5 5.55108 36.5 5.55655 36.5C5.56202 36.5 5.56753 36.5 5.57308 36.5C5.57863 36.5 5.58421 36.5 5.58983 36.5C5.59545 36.5 5.60111 36.5 5.6068 36.5C5.6125 36.5 5.61823 36.5 5.62399 36.5C5.62976 36.5 5.63556 36.5 5.6414 36.5C5.64724 36.5 5.65312 36.5 5.65903 36.5C5.66494 36.5 5.67089 36.5 5.67687 36.5C5.68285 36.5 5.68887 36.5 5.69493 36.5C5.70098 36.5 5.70707 36.5 5.7132 36.5C5.71933 36.5 5.72549 36.5 5.73169 36.5C5.73788 36.5 5.74412 36.5 5.75038 36.5C5.75665 36.5 5.76295 36.5 5.76929 36.5C5.77563 36.5 5.782 36.5 5.78841 36.5C5.79482 36.5 5.80126 36.5 5.80774 36.5C5.81422 36.5 5.82073 36.5 5.82728 36.5C5.83383 36.5 5.84041 36.5 5.84703 36.5C5.85364 36.5 5.86029 36.5 5.86698 36.5C5.87366 36.5 5.88038 36.5 5.88714 36.5C5.89389 36.5 5.90068 36.5 5.9075 36.5C5.91432 36.5 5.92118 36.5 5.92807 36.5C5.93496 36.5 5.94188 36.5 5.94884 36.5C5.95579 36.5 5.96278 36.5 5.96981 36.5C5.97683 36.5 5.98389 36.5 5.99098 36.5C5.99807 36.5 6.0052 36.5 6.01236 36.5C6.01951 36.5 6.0267 36.5 6.03393 36.5C6.04115 36.5 6.04841 36.5 6.0557 36.5C6.06299 36.5 6.07031 36.5 6.07767 36.5C6.08502 36.5 6.09241 36.5 6.09983 36.5C6.10725 36.5 6.11471 36.5 6.12219 36.5C6.12968 36.5 6.1372 36.5 6.14475 36.5C6.1523 36.5 6.15988 36.5 6.1675 36.5C6.17511 36.5 6.18276 36.5 6.19044 36.5C6.19812 36.5 6.20583 36.5 6.21357 36.5C6.22131 36.5 6.22909 36.5 6.23689 36.5C6.2447 36.5 6.25254 36.5 6.2604 36.5C6.26827 36.5 6.27617 36.5 6.28411 36.5C6.29204 36.5 6.3 36.5 6.308 36.5C6.31599 36.5 6.32402 36.5 6.33207 36.5C6.34013 36.5 6.34822 36.5 6.35634 36.5C6.36445 36.5 6.3726 36.5 6.38078 36.5C6.38896 36.5 6.39717 36.5 6.40542 36.5C6.41366 36.5 6.42193 36.5 6.43023 36.5C6.43853 36.5 6.44686 36.5 6.45523 36.5C6.46359 36.5 6.47198 36.5 6.48041 36.5C6.48883 36.5 6.49728 36.5 6.50576 36.5C6.51425 36.5 6.52276 36.5 6.5313 36.5C6.53985 36.5 6.54842 36.5 6.55702 36.5C6.56562 36.5 6.57425 36.5 6.58291 36.5C6.59157 36.5 6.60027 36.5 6.60898 36.5C6.6177 36.5 6.62645 36.5 6.63523 36.5C6.64401 36.5 6.65282 36.5 6.66165 36.5C6.67049 36.5 6.67935 36.5 6.68825 36.5C6.69714 36.5 6.70606 36.5 6.71501 36.5C6.72397 36.5 6.73294 36.5 6.74195 36.5C6.75096 36.5 6.76 36.5 6.76906 36.5C6.77813 36.5 6.78722 36.5 6.79634 36.5C6.80546 36.5 6.81461 36.5 6.82379 36.5C6.83297 36.5 6.84218 36.5 6.85141 36.5C6.86064 36.5 6.8699 36.5 6.87919 36.5C6.88848 36.5 6.8978 36.5 6.90714 36.5C6.91649 36.5 6.92586 36.5 6.93526 36.5C6.94466 36.5 6.95409 36.5 6.96354 36.5C6.97299 36.5 6.98247 36.5 6.99198 36.5C7.00149 36.5 7.01103 36.5 7.02059 36.5C7.03015 36.5 7.03974 36.5 7.04936 36.5C7.05897 36.5 7.06861 36.5 7.07828 36.5C7.08795 36.5 7.09765 36.5 7.10737 36.5C7.11709 36.5 7.12684 36.5 7.13662 36.5C7.14639 36.5 7.15619 36.5 7.16602 36.5C7.17585 36.5 7.1857 36.5 7.19558 36.5C7.20546 36.5 7.21536 36.5 7.22529 36.5C7.23522 36.5 7.24518 36.5 7.25516 36.5C7.26515 36.5 7.27516 36.5 7.28519 36.5C7.29522 36.5 7.30528 36.5 7.31537 36.5C7.32545 36.5 7.33556 36.5 7.3457 36.5C7.35583 36.5 7.36599 36.5 7.37618 36.5C7.38636 36.5 7.39657 36.5 7.40681 36.5C7.41704 36.5 7.4273 36.5 7.43759 36.5C7.44787 36.5 7.45818 36.5 7.46851 36.5C7.47885 36.5 7.48921 36.5 7.49959 36.5C7.50997 36.5 7.52038 36.5 7.53081 36.5C7.54124 36.5 7.5517 36.5 7.56218 36.5C7.57266 36.5 7.58316 36.5 7.59369 36.5C7.60422 36.5 7.61477 36.5 7.62534 36.5C7.63592 36.5 7.64652 36.5 7.65714 36.5C7.66776 36.5 7.67841 36.5 7.68908 36.5C7.69975 36.5 7.71044 36.5 7.72116 36.5C7.73187 36.5 7.74261 36.5 7.75338 36.5C7.76414 36.5 7.77493 36.5 7.78573 36.5C7.79654 36.5 7.80738 36.5 7.81823 36.5C7.82908 36.5 7.83996 36.5 7.85086 36.5C7.86176 36.5 7.87269 36.5 7.88363 36.5C7.89458 36.5 7.90554 36.5 7.91653 36.5C7.92752 36.5 7.93854 36.5 7.94957 36.5C7.96061 36.5 7.97166 36.5 7.98274 36.5C7.99382 36.5 8.00492 36.5 8.01604 36.5C8.02717 36.5 8.03831 36.5 8.04948 36.5C8.06064 36.5 8.07183 36.5 8.08304 36.5C8.09425 36.5 8.10548 36.5 8.11674 36.5C8.12799 36.5 8.13926 36.5 8.15056 36.5C8.16185 36.5 8.17317 36.5 8.18451 36.5C8.19584 36.5 8.2072 36.5 8.21858 36.5C8.22996 36.5 8.24136 36.5 8.25278 36.5C8.2642 36.5 8.27565 36.5 8.28711 36.5C8.29857 36.5 8.31006 36.5 8.32156 36.5C8.33306 36.5 8.34459 36.5 8.35613 36.5C8.36768 36.5 8.37924 36.5 8.39082 36.5C8.40241 36.5 8.41401 36.5 8.42564 36.5C8.43726 36.5 8.44891 36.5 8.46057 36.5C8.47224 36.5 8.48392 36.5 8.49563 36.5C8.50733 36.5 8.51906 36.5 8.5308 36.5C8.54254 36.5 8.5543 36.5 8.56609 36.5C8.57787 36.5 8.58967 36.5 8.60149 36.5C8.61331 36.5 8.62515 36.5 8.63701 36.5C8.64887 36.5 8.66075 36.5 8.67264 36.5C8.68454 36.5 8.69646 36.5 8.70839 36.5C8.72033 36.5 8.73228 36.5 8.74425 36.5C8.75622 36.5 8.76821 36.5 8.78022 36.5C8.79223 36.5 8.80426 36.5 8.8163 36.5C8.82835 36.5 8.84041 36.5 8.85249 36.5C8.86457 36.5 8.87667 36.5 8.88879 36.5C8.90091 36.5 8.91305 36.5 8.9252 36.5C8.93735 36.5 8.94952 36.5 8.96171 36.5C8.9739 36.5 8.98611 36.5 8.99833 36.5C9.01055 36.5 9.0228 36.5 9.03505 36.5C9.04731 36.5 9.05959 36.5 9.07188 36.5C9.08417 36.5 9.09649 36.5 9.10881 36.5C9.12114 36.5 9.13348 36.5 9.14584 36.5C9.15821 36.5 9.17058 36.5 9.18298 36.5C9.19537 36.5 9.20778 36.5 9.22021 36.5C9.23264 36.5 9.24508 36.5 9.25754 36.5C9.27 36.5 9.28248 36.5 9.29497 36.5C9.30747 36.5 9.31998 36.5 9.3325 36.5C9.34503 36.5 9.35757 36.5 9.37012 36.5C9.38268 36.5 9.39525 36.5 9.40784 36.5C9.42043 36.5 9.43304 36.5 9.44566 36.5C9.45828 36.5 9.47091 36.5 9.48356 36.5C9.49621 36.5 9.50888 36.5 9.52156 36.5C9.53424 36.5 9.54694 36.5 9.55965 36.5C9.57237 36.5 9.58509 36.5 9.59784 36.5C9.61058 36.5 9.62333 36.5 9.63611 36.5C9.64888 36.5 9.66166 36.5 9.67447 36.5C9.68727 36.5 9.70008 36.5 9.71291 36.5C9.72574 36.5 9.73859 36.5 9.75145 36.5C9.76431 36.5 9.77718 36.5 9.79007 36.5C9.80295 36.5 9.81586 36.5 9.82877 36.5C9.84169 36.5 9.85462 36.5 9.86756 36.5C9.8805 36.5 9.89346 36.5 9.90643 36.5C9.9194 36.5 9.93239 36.5 9.94539 36.5C9.95838 36.5 9.9714 36.5 9.98442 36.5C9.99745 36.5 10.0105 36.5 10.0235 36.5C10.0366 36.5 10.0497 36.5 10.0627 36.5C10.0758 36.5 10.0889 36.5 10.102 36.5C10.1151 36.5 10.1282 36.5 10.1414 36.5C10.1545 36.5 10.1676 36.5 10.1808 36.5C10.1939 36.5 10.2071 36.5 10.2203 36.5C10.2335 36.5 10.2467 36.5 10.2599 36.5C10.2731 36.5 10.2863 36.5 10.2995 36.5C10.3127 36.5 10.326 36.5 10.3392 36.5C10.3525 36.5 10.3657 36.5 10.379 36.5C10.3923 36.5 10.4056 36.5 10.4189 36.5C10.4322 36.5 10.4455 36.5 10.4588 36.5C10.4721 36.5 10.4855 36.5 10.4988 36.5C10.5122 36.5 10.5255 36.5 10.5389 36.5C10.5523 36.5 10.5656 36.5 10.579 36.5C10.5924 36.5 10.6058 36.5 10.6192 36.5C10.6327 36.5 10.6461 36.5 10.6595 36.5C10.6729 36.5 10.6864 36.5 10.6998 36.5C10.7133 36.5 10.7268 36.5 10.7402 36.5C10.7537 36.5 10.7672 36.5 10.7807 36.5C10.7942 36.5 10.8077 36.5 10.8212 36.5C10.8347 36.5 10.8483 36.5 10.8618 36.5C10.8753 36.5 10.8889 36.5 10.9024 36.5C10.916 36.5 10.9296 36.5 10.9431 36.5C10.9567 36.5 10.9703 36.5 10.9839 36.5C10.9975 36.5 11.0111 36.5 11.0247 36.5C11.0383 36.5 11.0519 36.5 11.0656 36.5C11.0792 36.5 11.0928 36.5 11.1065 36.5C11.1201 36.5 11.1338 36.5 11.1475 36.5C11.1611 36.5 11.1748 36.5 11.1885 36.5C11.2022 36.5 11.2159 36.5 11.2296 36.5C11.2433 36.5 11.257 36.5 11.2707 36.5C11.2844 36.5 11.2982 36.5 11.3119 36.5C11.3256 36.5 11.3394 36.5 11.3531 36.5C11.3669 36.5 11.3806 36.5 11.3944 36.5C11.4082 36.5 11.422 36.5 11.4357 36.5C11.4495 36.5 11.4633 36.5 11.4771 36.5C11.4909 36.5 11.5047 36.5 11.5185 36.5C11.5323 36.5 11.5462 36.5 11.56 36.5C11.5738 36.5 11.5876 36.5 11.6015 36.5C11.6153 36.5 11.6292 36.5 11.643 36.5C11.6569 36.5 11.6708 36.5 11.6846 36.5C11.6985 36.5 11.7124 36.5 11.7263 36.5C11.7401 36.5 11.754 36.5 11.7679 36.5C11.7818 36.5 11.7957 36.5 11.8096 36.5C11.8235 36.5 11.8375 36.5 11.8514 36.5C11.8653 36.5 11.8792 36.5 11.8932 36.5C11.9071 36.5 11.921 36.5 11.935 36.5C11.9489 36.5 11.9629 36.5 11.9768 36.5C11.9908 36.5 12.0047 36.5 12.0187 36.5C12.0327 36.5 12.0467 36.5 12.0606 36.5C12.0746 36.5 12.0886 36.5 12.1026 36.5C12.1166 36.5 12.1306 36.5 12.1446 36.5C12.1586 36.5 12.1726 36.5 12.1866 36.5C12.2006 36.5 12.2146 36.5 12.2286 36.5C12.2426 36.5 12.2567 36.5 12.2707 36.5C12.2847 36.5 12.2987 36.5 12.3128 36.5C12.3268 36.5 12.3409 36.5 12.3549 36.5C12.369 36.5 12.383 36.5 12.3971 36.5C12.4111 36.5 12.4252 36.5 12.4392 36.5C12.4533 36.5 12.4674 36.5 12.4814 36.5C12.4955 36.5 12.5096 36.5 12.5236 36.5C12.5377 36.5 12.5518 36.5 12.5659 36.5C12.58 36.5 12.5941 36.5 12.6081 36.5C12.6222 36.5 12.6363 36.5 12.6504 36.5C12.6645 36.5 12.6786 36.5 12.6927 36.5C12.7068 36.5 12.7209 36.5 12.735 36.5C12.7492 36.5 12.7633 36.5 12.7774 36.5C12.7915 36.5 12.8056 36.5 12.8197 36.5C12.8338 36.5 12.848 36.5 12.8621 36.5C12.8762 36.5 12.8903 36.5 12.9045 36.5C12.9186 36.5 12.9327 36.5 12.9469 36.5C12.961 36.5 12.9751 36.5 12.9893 36.5C13.0034 36.5 13.0175 36.5 13.0317 36.5C13.0458 36.5 13.06 36.5 13.0741 36.5C13.0883 36.5 13.1024 36.5 13.1165 36.5C13.1307 36.5 13.1448 36.5 13.159 36.5C13.1731 36.5 13.1873 36.5 13.2014 36.5C13.2156 36.5 13.2297 36.5 13.2439 36.5C13.258 36.5 13.2722 36.5 13.2864 36.5C13.3005 36.5 13.3147 36.5 13.3288 36.5C13.343 36.5 13.3571 36.5 13.3713 36.5C13.3855 36.5 13.3996 36.5 13.4138 36.5C13.4279 36.5 13.4421 36.5 13.4562 36.5C13.4704 36.5 13.4846 36.5 13.4987 36.5C13.5129 36.5 13.527 36.5 13.5412 36.5C13.5554 36.5 13.5695 36.5 13.5837 36.5C13.5978 36.5 13.612 36.5 13.6261 36.5C13.6403 36.5 13.6545 36.5 13.6686 36.5C13.6828 36.5 13.6969 36.5 13.7111 36.5C13.7252 36.5 13.7394 36.5 13.7535 36.5C13.7677 36.5 13.7818 36.5 13.796 36.5C13.8102 36.5 13.8243 36.5 13.8384 36.5C13.8526 36.5 13.8667 36.5 13.8809 36.5C13.895 36.5 13.9092 36.5 13.9233 36.5C13.9375 36.5 13.9516 36.5 13.9657 36.5C13.9799 36.5 13.994 36.5 14.0082 36.5C14.0223 36.5 14.0364 36.5 14.0506 36.5C14.0647 36.5 14.0788 36.5 14.0929 36.5C14.1071 36.5 14.1212 36.5 14.1353 36.5C14.1494 36.5 14.1636 36.5 14.1777 36.5C14.1918 36.5 14.2059 36.5 14.22 36.5C14.2341 36.5 14.2482 36.5 14.2624 36.5C14.2765 36.5 14.2906 36.5 14.3047 36.5C14.3188 36.5 14.3329 36.5 14.347 36.5C14.3611 36.5 14.3751 36.5 14.3892 36.5C14.4033 36.5 14.4174 36.5 14.4315 36.5C14.4456 36.5 14.4597 36.5 14.4737 36.5C14.4878 36.5 14.5019 36.5 14.5159 36.5C14.53 36.5 14.5441 36.5 14.5581 36.5C14.5722 36.5 14.5862 36.5 14.6003 36.5C14.6143 36.5 14.6284 36.5 14.6424 36.5C14.6565 36.5 14.6705 36.5 14.6845 36.5C14.6986 36.5 14.7126 36.5 14.7266 36.5C14.7407 36.5 14.7547 36.5 14.7687 36.5C14.7827 36.5 14.7967 36.5 14.8107 36.5C14.8247 36.5 14.8387 36.5 14.8527 36.5C14.8667 36.5 14.8807 36.5 14.8947 36.5C14.9087 36.5 14.9227 36.5 14.9366 36.5C14.9506 36.5 14.9646 36.5 14.9786 36.5C14.9925 36.5 15.0065 36.5 15.0204 36.5C15.0344 36.5 15.0483 36.5 15.0623 36.5C15.0762 36.5 15.0901 36.5 15.1041 36.5C15.118 36.5 15.1319 36.5 15.1459 36.5C15.1598 36.5 15.1737 36.5 15.1876 36.5C15.2015 36.5 15.2154 36.5 15.2293 36.5C15.2432 36.5 15.2571 36.5 15.2709 36.5C15.2848 36.5 15.2987 36.5 15.3126 36.5C15.3264 36.5 15.3403 36.5 15.3541 36.5C15.368 36.5 15.3818 36.5 15.3957 36.5C15.4095 36.5 15.4233 36.5 15.4372 36.5C15.451 36.5 15.4648 36.5 15.4786 36.5C15.4924 36.5 15.5062 36.5 15.52 36.5C15.5338 36.5 15.5476 36.5 15.5614 36.5C15.5751 36.5 15.5889 36.5 15.6027 36.5C15.6164 36.5 15.6302 36.5 15.6439 36.5C15.6577 36.5 15.6714 36.5 15.6852 36.5C15.6989 36.5 15.7126 36.5 15.7263 36.5C15.74 36.5 15.7537 36.5 15.7674 36.5C15.7811 36.5 15.7948 36.5 15.8085 36.5C15.8222 36.5 15.8359 36.5 15.8495 36.5C15.8632 36.5 15.8768 36.5 15.8905 36.5C15.9041 36.5 15.9178 36.5 15.9314 36.5C15.945 36.5 15.9586 36.5 15.9722 36.5C15.9858 36.5 15.9994 36.5 16.013 36.5C16.0266 36.5 16.0402 36.5 16.0538 36.5C16.0673 36.5 16.0809 36.5 16.0944 36.5C16.108 36.5 16.1215 36.5 16.1351 36.5C16.1486 36.5 16.1621 36.5 16.1756 36.5C16.1891 36.5 16.2026 36.5 16.2161 36.5C16.2296 36.5 16.2431 36.5 16.2566 36.5C16.27 36.5 16.2835 36.5 16.297 36.5C16.3104 36.5 16.3238 36.5 16.3373 36.5C16.3507 36.5 16.3641 36.5 16.3775 36.5C16.3909 36.5 16.4043 36.5 16.4177 36.5C16.4311 36.5 16.4445 36.5 16.4578 36.5C16.4712 36.5 16.4845 36.5 16.4979 36.5C16.5112 36.5 16.5245 36.5 16.5379 36.5C16.5512 36.5 16.5645 36.5 16.5778 36.5C16.5911 36.5 16.6043 36.5 16.6176 36.5C16.6309 36.5 16.6441 36.5 16.6574 36.5C16.6706 36.5 16.6839 36.5 16.6971 36.5C16.7103 36.5 16.7235 36.5 16.7367 36.5C16.7499 36.5 16.7631 36.5 16.7763 36.5C16.7894 36.5 16.8026 36.5 16.8157 36.5C16.8289 36.5 16.842 36.5 16.8551 36.5C16.8683 36.5 16.8814 36.5 16.8945 36.5C16.9076 36.5 16.9207 36.5 16.9337 36.5C16.9468 36.5 16.9598 36.5 16.9729 36.5C16.9859 36.5 16.999 36.5 17.012 36.5C17.025 36.5 17.038 36.5 17.051 36.5C17.064 36.5 17.077 36.5 17.0899 36.5C17.1029 36.5 17.1158 36.5 17.1288 36.5C17.1417 36.5 17.1546 36.5 17.1675 36.5C17.1804 36.5 17.1933 36.5 17.2062 36.5C17.2191 36.5 17.232 36.5 17.2448 36.5C17.2577 36.5 17.2705 36.5 17.2833 36.5C17.2961 36.5 17.3089 36.5 17.3217 36.5C17.3345 36.5 17.3473 36.5 17.3601 36.5C17.3728 36.5 17.3856 36.5 17.3983 36.5C17.411 36.5 17.4238 36.5 17.4365 36.5C17.4492 36.5 17.4619 36.5 17.4745 36.5C17.4872 36.5 17.4999 36.5 17.5125 36.5C17.5251 36.5 17.5378 36.5 17.5504 36.5C17.563 36.5 17.5756 36.5 17.5882 36.5C17.6007 36.5 17.6133 36.5 17.6259 36.5C17.6384 36.5 17.6509 36.5 17.6634 36.5C17.676 36.5 17.6885 36.5 17.7009 36.5C17.7134 36.5 17.7259 36.5 17.7383 36.5C17.7508 36.5 17.7632 36.5 17.7756 36.5C17.7881 36.5 17.8005 36.5 17.8128 36.5C17.8252 36.5 17.8376 36.5 17.85 36.5C17.8623 36.5 17.8746 36.5 17.887 36.5C17.8993 36.5 17.9116 36.5 17.9239 36.5C17.9361 36.5 17.9484 36.5 17.9606 36.5C17.9729 36.5 17.9851 36.5 17.9973 36.5C18.0096 36.5 18.0217 36.5 18.0339 36.5C18.0461 36.5 18.0583 36.5 18.0704 36.5C18.0826 36.5 18.0947 36.5 18.1068 36.5C18.1189 36.5 18.131 36.5 18.143 36.5C18.1551 36.5 18.1672 36.5 18.1792 36.5C18.1912 36.5 18.2033 36.5 18.2153 36.5C18.2273 36.5 18.2392 36.5 18.2512 36.5C18.2632 36.5 18.2751 36.5 18.287 36.5C18.2989 36.5 18.3108 36.5 18.3227 36.5C18.3346 36.5 18.3465 36.5 18.3583 36.5C18.3702 36.5 18.382 36.5 18.3938 36.5C18.4056 36.5 18.4174 36.5 18.4292 36.5C18.441 36.5 18.4527 36.5 18.4644 36.5C18.4762 36.5 18.4879 36.5 18.4996 36.5C18.5113 36.5 18.5229 36.5 18.5346 36.5C18.5462 36.5 18.5579 36.5 18.5695 36.5C18.5811 36.5 18.5927 36.5 18.6043 36.5C18.6158 36.5 18.6274 36.5 18.6389 36.5C18.6505 36.5 18.662 36.5 18.6735 36.5C18.6849 36.5 18.6964 36.5 18.7079 36.5C18.7193 36.5 18.7307 36.5 18.7422 36.5C18.7536 36.5 18.7649 36.5 18.7763 36.5C18.7877 36.5 18.799 36.5 18.8104 36.5C18.8217 36.5 18.833 36.5 18.8443 36.5C18.8555 36.5 18.8668 36.5 18.878 36.5C18.8893 36.5 18.9005 36.5 18.9117 36.5C18.9229 36.5 18.9341 36.5 18.9452 36.5C18.9564 36.5 18.9675 36.5 18.9786 36.5C18.9897 36.5 19.0008 36.5 19.0119 36.5C19.0229 36.5 19.034 36.5 19.045 36.5C19.056 36.5 19.067 36.5 19.078 36.5C19.089 36.5 19.0999 36.5 19.1109 36.5C19.1218 36.5 19.1327 36.5 19.1436 36.5C19.1545 36.5 19.1653 36.5 19.1762 36.5C19.187 36.5 19.1978 36.5 19.2086 36.5C19.2194 36.5 19.2302 36.5 19.241 36.5C19.2517 36.5 19.2624 36.5 19.2731 36.5C19.2838 36.5 19.2945 36.5 19.3052 36.5C19.3158 36.5 19.3265 36.5 19.3371 36.5C19.3477 36.5 19.3583 36.5 19.3688 36.5C19.3794 36.5 19.3899 36.5 19.4004 36.5C19.4109 36.5 19.4214 36.5 19.4319 36.5C19.4424 36.5 19.4528 36.5 19.4632 36.5C19.4736 36.5 19.484 36.5 19.4944 36.5C19.5048 36.5 19.5151 36.5 19.5254 36.5C19.5357 36.5 19.546 36.5 19.5563 36.5C19.5666 36.5 19.5768 36.5 19.587 36.5C19.5973 36.5 19.6075 36.5 19.6176 36.5C19.6278 36.5 19.6379 36.5 19.6481 36.5C19.6582 36.5 19.6683 36.5 19.6783 36.5C19.6884 36.5 19.6985 36.5 19.7085 36.5C19.7185 36.5 19.7285 36.5 19.7385 36.5C19.7484 36.5 19.7584 36.5 19.7683 36.5C19.7782 36.5 19.7881 36.5 19.7979 36.5C19.8078 36.5 19.8176 36.5 19.8275 36.5C19.8373 36.5 19.8471 36.5 19.8568 36.5C19.8666 36.5 19.8763 36.5 19.886 36.5C19.8957 36.5 19.9054 36.5 19.9151 36.5C19.9247 36.5 19.9343 36.5 19.9439 36.5C19.9535 36.5 19.9631 36.5 19.9726 36.5C19.9822 36.5 19.9917 36.5 20.0012 36.5C20.0107 36.5 20.0202 36.5 20.0296 36.5C20.039 36.5 20.0484 36.5 20.0578 36.5C20.0672 36.5 20.0766 36.5 20.0859 36.5C20.0952 36.5 20.1045 36.5 20.1138 36.5C20.1231 36.5 20.1323 36.5 20.1415 36.5C20.1507 36.5 20.1599 36.5 20.1691 36.5C20.1783 36.5 20.1874 36.5 20.1965 36.5C20.2056 36.5 20.2147 36.5 20.2237 36.5C20.2328 36.5 20.2418 36.5 20.2508 36.5C20.2598 36.5 20.2687 36.5 20.2777 36.5C20.2866 36.5 20.2955 36.5 20.3044 36.5C20.3133 36.5 20.3221 36.5 20.3309 36.5C20.3397 36.5 20.3485 36.5 20.3573 36.5C20.366 36.5 20.3748 36.5 20.3835 36.5C20.3922 36.5 20.4009 36.5 20.4095 36.5C20.4181 36.5 20.4268 36.5 20.4353 36.5C20.4439 36.5 20.4525 36.5 20.461 36.5C20.4695 36.5 20.478 36.5 20.4865 36.5C20.4949 36.5 20.5034 36.5 20.5118 36.5C20.5202 36.5 20.5286 36.5 20.5369 36.5C20.5453 36.5 20.5536 36.5 20.5619 36.5C20.5701 36.5 20.5784 36.5 20.5866 36.5C20.5948 36.5 20.603 36.5 20.6112 36.5C20.6193 36.5 20.6275 36.5 20.6356 36.5C20.6437 36.5 20.6517 36.5 20.6598 36.5C20.6678 36.5 20.6758 36.5 20.6838 36.5C20.6918 36.5 20.6997 36.5 20.7076 36.5C20.7156 36.5 20.7234 36.5 20.7313 36.5C20.7391 36.5 20.747 36.5 20.7547 36.5C20.7625 36.5 20.7703 36.5 20.778 36.5C20.7857 36.5 20.7934 36.5 20.8011 36.5C20.8087 36.5 20.8164 36.5 20.824 36.5C20.8316 36.5 20.8391 36.5 20.8466 36.5C20.8542 36.5 20.8617 36.5 20.8691 36.5C20.8766 36.5 20.884 36.5 20.8914 36.5C20.8988 36.5 20.9062 36.5 20.9136 36.5C20.9209 36.5 20.9282 36.5 20.9355 36.5C20.9427 36.5 20.95 36.5 20.9572 36.5C20.9644 36.5 20.9715 36.5 20.9787 36.5C20.9858 36.5 20.9929 36.5 21 36.5V34.5ZM5.00129 35.5C5.92443 35.8845 5.92449 35.8843 5.92456 35.8841C5.9246 35.8841 5.92468 35.8839 5.92475 35.8837C5.9249 35.8833 5.92509 35.8829 5.92533 35.8823C5.92579 35.8812 5.92643 35.8796 5.92723 35.8777C5.92882 35.8739 5.93107 35.8684 5.93395 35.8614C5.93971 35.8474 5.94798 35.8272 5.95857 35.8012C5.97975 35.7491 6.01019 35.6735 6.04826 35.5771C6.12438 35.3845 6.23117 35.1084 6.3555 34.7706C6.6036 34.0966 6.92415 33.1701 7.2102 32.1675C7.49469 31.1703 7.75343 30.0691 7.86599 29.0528C7.97333 28.0836 7.97282 26.9993 7.55931 26.1674L5.76837 27.0576C5.90953 27.3416 5.97854 27.9262 5.87815 28.8326C5.78298 29.6919 5.55676 30.6731 5.28694 31.6188C5.01868 32.5591 4.71559 33.436 4.47863 34.0797C4.36042 34.4008 4.25932 34.6621 4.18818 34.8422C4.15263 34.9322 4.1246 35.0018 4.10572 35.0482C4.09627 35.0715 4.08912 35.0889 4.08446 35.1003C4.08212 35.1059 4.08042 35.1101 4.07935 35.1126C4.07882 35.1139 4.07846 35.1148 4.07825 35.1153C4.07815 35.1155 4.07809 35.1157 4.07807 35.1157C4.07806 35.1157 4.07808 35.1157 4.07808 35.1157C4.0781 35.1156 4.07814 35.1155 5.00129 35.5Z" fill="#5D78D9"/>
</g>
<defs>
<filter id="filter0_d_901_5009" x="0" y="0.5" width="42" height="42" filterUnits="userSpaceOnUse" color-interpolation-filters="sRGB">
<feFlood flood-opacity="0" result="BackgroundImageFix"/>
<feColorMatrix in="SourceAlpha" type="matrix" values="0 0 0 0 0 0 0 0 0 0 0 0 0 0 0 0 0 0 127 0" result="hardAlpha"/>
<feOffset dy="2"/>
<feGaussianBlur stdDeviation="2"/>
<feComposite in2="hardAlpha" operator="out"/>
<feColorMatrix type="matrix" values="0 0 0 0 0.176471 0 0 0 0 0.384314 0 0 0 0 0.682353 0 0 0 1 0"/>
<feBlend mode="normal" in2="BackgroundImageFix" result="effect1_dropShadow_901_5009"/>
<feBlend mode="normal" in="SourceGraphic" in2="effect1_dropShadow_901_5009" result="shape"/>
</filter>
</defs>
</svg>
