<svg width="34" height="35" viewBox="0 0 34 35" fill="none" xmlns="http://www.w3.org/2000/svg">
<path d="M6.86625 5.05556H33L29.4444 17.5H8.78082M31.2222 24.6111H9.88889L6.33333 1.5H1M11.6667 31.7222C11.6667 32.7041 10.8707 33.5 9.88889 33.5C8.90705 33.5 8.11111 32.7041 8.11111 31.7222C8.11111 30.7404 8.90705 29.9444 9.88889 29.9444C10.8707 29.9444 11.6667 30.7404 11.6667 31.7222ZM31.2222 31.7222C31.2222 32.7041 30.4263 33.5 29.4444 33.5C28.4626 33.5 27.6667 32.7041 27.6667 31.7222C27.6667 30.7404 28.4626 29.9444 29.4444 29.9444C30.4263 29.9444 31.2222 30.7404 31.2222 31.7222Z" stroke="#5D78D9" stroke-width="2" stroke-linecap="round" stroke-linejoin="round"/>
</svg>
