<svg width="60" height="58" viewBox="0 0 60 58" fill="none" xmlns="http://www.w3.org/2000/svg">
<g filter="url(#filter0_f_396_8769)">
<rect x="20.9331" y="20.5" width="18.1333" height="17" rx="8.5" fill="#A9B7FF" fill-opacity="0.57"/>
</g>
<path d="M29.9998 26.6925C29.7564 26.6925 29.5184 26.6248 29.316 26.498C29.1136 26.3712 28.9559 26.191 28.8627 25.9802C28.7696 25.7693 28.7452 25.5373 28.7927 25.3135C28.8402 25.0897 28.9574 24.8841 29.1295 24.7227C29.3017 24.5614 29.521 24.4515 29.7597 24.4069C29.9984 24.3624 30.2459 24.3853 30.4708 24.4726C30.6957 24.5599 30.8879 24.7078 31.0232 24.8976C31.1584 25.0873 31.2306 25.3104 31.2306 25.5386C31.2306 25.8446 31.1009 26.1381 30.8701 26.3545C30.6393 26.5709 30.3262 26.6925 29.9998 26.6925V26.6925Z" fill="#5D78D9"/>
<path d="M30 36.5C28.4178 36.5 26.871 36.0601 25.5554 35.236C24.2398 34.4119 23.2145 33.2406 22.609 31.8701C22.0035 30.4997 21.845 28.9917 22.1537 27.5368C22.4624 26.082 23.2243 24.7456 24.3431 23.6967C25.462 22.6478 26.8874 21.9335 28.4393 21.6441C29.9911 21.3547 31.5997 21.5032 33.0615 22.0709C34.5233 22.6386 35.7727 23.5999 36.6518 24.8332C37.5308 26.0666 38 27.5166 38 29C38 30.9891 37.1571 32.8968 35.6569 34.3033C34.1566 35.7098 32.1217 36.5 30 36.5V36.5ZM30 22.6538C28.6612 22.6538 27.3524 23.026 26.2392 23.7234C25.126 24.4207 24.2584 25.4118 23.746 26.5714C23.2337 27.731 23.0996 29.007 23.3608 30.2381C23.622 31.4691 24.2667 32.5999 25.2134 33.4874C26.1601 34.3749 27.3663 34.9793 28.6794 35.2242C29.9925 35.4691 31.3536 35.3434 32.5905 34.8631C33.8274 34.3828 34.8846 33.5694 35.6284 32.5257C36.3722 31.4821 36.7692 30.2552 36.7692 29C36.7692 27.3169 36.056 25.7027 34.7866 24.5126C33.5171 23.3225 31.7953 22.6538 30 22.6538Z" fill="#5D78D9"/>
<path d="M29.9998 33.6149C29.6734 33.6149 29.3603 33.4934 29.1295 33.277C28.8987 33.0606 28.769 32.7671 28.769 32.4611V28.9995C28.769 28.6935 28.8987 28.4 29.1295 28.1837C29.3603 27.9673 29.6734 27.8457 29.9998 27.8457C30.3262 27.8457 30.6393 27.9673 30.8701 28.1837C31.1009 28.4 31.2306 28.6935 31.2306 28.9995V32.4611C31.2306 32.7671 31.1009 33.0606 30.8701 33.277C30.6393 33.4934 30.3262 33.6149 29.9998 33.6149V33.6149Z" fill="#5D78D9"/>
<defs>
<filter id="filter0_f_396_8769" x="0.933105" y="0.5" width="58.1333" height="57" filterUnits="userSpaceOnUse" color-interpolation-filters="sRGB">
<feFlood flood-opacity="0" result="BackgroundImageFix"/>
<feBlend mode="normal" in="SourceGraphic" in2="BackgroundImageFix" result="shape"/>
<feGaussianBlur stdDeviation="10" result="effect1_foregroundBlur_396_8769"/>
</filter>
</defs>
</svg>
