<svg width="70" height="66" viewBox="0 0 70 66" xmlns="http://www.w3.org/2000/svg">
<path fill-rule="evenodd" clip-rule="evenodd" d="M1.31659 33.7301C-1.02675 25.4415 -0.311521 17.0563 4.0223 10.4979C12.7899 -2.76947 33.0687 -3.56926 49.2788 8.71413C59.6485 16.5719 65.8574 27.8918 66.6906 38.5011H19.7711C17.8575 38.5011 16.3039 40.1647 16.3039 42.214V49.6394C16.3039 51.6887 17.8575 53.3523 19.7711 53.3523H63.7618C66.1814 48.9256 63.7618 53.3523 63.7618 53.3523C63.453 53.917 63.1208 54.4691 62.764 55.0091C53.9964 68.277 33.7177 69.0763 17.5075 56.7934C11.5081 52.2471 6.90135 46.542 3.92262 40.4859L7.37644 28.3578H13.4965L14.616 31.9542H19.6539L13.1855 12.3337H8.0606L1.31659 33.7301ZM43.5247 24.6947C43.5247 22.2707 44.1589 20.3746 45.4277 19.007C46.6966 17.6393 48.4506 16.9555 50.6893 16.9555C52.9368 16.9555 54.6967 17.6393 55.9699 19.007C57.2427 20.3746 57.8793 22.2707 57.8793 24.6947C57.8793 27.1193 57.2427 29.017 55.9699 30.3893C54.6967 31.7611 52.9368 32.447 50.6893 32.447C48.4339 32.447 46.6755 31.7632 45.415 30.3956C44.1545 29.0285 43.5247 27.1277 43.5247 24.6947ZM33.7473 20.3389V17.4751H35.5633V13.3728H39.9917V17.4751H42.2559V20.3389H39.9917V26.6128C39.9917 27.5722 40.1079 28.2067 40.3402 28.5179C40.5725 28.8285 41.0076 28.9839 41.6462 28.9839C41.7869 28.9839 41.8972 28.9818 41.9761 28.9771C42.0545 28.9729 42.1314 28.966 42.2059 28.9571V31.981C41.7418 32.0786 41.2875 32.1542 40.844 32.2072C40.4004 32.2607 39.9711 32.2875 39.5565 32.2875C38.022 32.2875 36.9733 31.8855 36.4092 31.0815C35.8456 30.278 35.5633 28.5667 35.5633 25.9469V20.3389H33.7473ZM23.312 31.9542L18.299 17.4751H22.9885L25.5759 27.5585L28.2006 17.4751H32.8652L27.8522 31.9542H23.312ZM48.0649 24.6947C48.0649 26.0177 48.2928 27.0348 48.749 27.7448C49.2048 28.4554 49.8517 28.8107 50.6893 28.8107C51.5352 28.8107 52.1884 28.4533 52.6486 27.7385C53.1088 27.0238 53.3392 26.0088 53.3392 24.6947C53.3392 23.3896 53.1088 22.3814 52.6486 21.6714C52.1884 20.9608 51.5352 20.6055 50.6893 20.6055C49.8434 20.6055 49.1945 20.9587 48.7427 21.6645C48.2908 22.3704 48.0649 23.3806 48.0649 24.6947ZM8.49599 24.2953H12.5014L10.4613 17.5286L8.49599 24.2953Z" />
<path d="M23.0665 41.708V43.7312L21.1507 49.0063H23.0665V50.8351H18.6377V48.9246L20.5929 43.5368H18.8377V41.708H23.0665Z" />
<path d="M25.9431 45.232H23.5063V44.6177C23.5063 43.9133 23.5827 43.3666 23.7353 42.9862C23.8879 42.603 24.1932 42.262 24.651 41.9689C25.1089 41.6758 25.7036 41.5293 26.4378 41.5293C27.3141 41.5293 27.9773 41.6956 28.422 42.0281C28.8667 42.3606 29.1351 42.7692 29.2246 43.2539C29.314 43.7357 29.3588 44.7333 29.3588 46.2437V50.8227H26.8352V50.0111C26.6773 50.3352 26.4721 50.5804 26.2221 50.7438C25.9721 50.9072 25.6721 50.9889 25.3247 50.9889C24.8721 50.9889 24.4537 50.8537 24.0748 50.5803C23.6958 50.307 23.5063 49.7096 23.5063 48.7881V48.0386C23.5063 47.3539 23.609 46.8889 23.809 46.641C24.009 46.393 24.5089 46.1055 25.3063 45.773C26.1589 45.4152 26.6141 45.1756 26.6747 45.0516C26.7352 44.9276 26.7641 44.6769 26.7641 44.2965C26.7641 43.8174 26.7299 43.5074 26.6641 43.3637C26.5983 43.22 26.4878 43.1468 26.3352 43.1468C26.1589 43.1468 26.0484 43.206 26.0063 43.33C25.9642 43.4511 25.9431 43.7667 25.9431 44.2739V45.232ZM26.7641 46.4831C26.3484 46.81 26.1089 47.0806 26.0405 47.3004C25.9747 47.523 25.9431 47.8385 25.9431 48.2499C25.9431 48.7233 25.972 49.0277 26.0299 49.1658C26.0878 49.3038 26.201 49.3715 26.372 49.3715C26.5352 49.3715 26.6404 49.3179 26.6904 49.2108C26.7404 49.1037 26.7641 48.8191 26.7641 48.3598V46.4831Z" />
<path d="M32.8625 41.6956L32.8178 42.5015C33.0494 42.1746 33.3046 41.9323 33.5836 41.7717C33.8599 41.611 34.1651 41.5293 34.494 41.5293C34.8967 41.5293 35.244 41.6449 35.5387 41.876C35.8308 42.1098 36.0151 42.3747 36.0887 42.679C36.1598 42.9805 36.1966 43.4962 36.1966 44.2204V48.0668C36.1966 48.8953 36.1519 49.487 36.0598 49.8364C35.9677 50.1887 35.7782 50.4676 35.494 50.6762C35.2098 50.8847 34.8651 50.9889 34.4625 50.9889C34.1414 50.9889 33.8441 50.91 33.5704 50.7494C33.2967 50.586 33.0441 50.3493 32.8178 50.0309V52.1245H30.2231V41.6956H32.8625ZM33.602 44.35C33.602 43.7864 33.5836 43.4455 33.5441 43.3243C33.5046 43.206 33.3994 43.1468 33.223 43.1468C33.052 43.1468 32.9415 43.2144 32.8915 43.3525C32.8415 43.4906 32.8178 43.823 32.8178 44.35V48.1344C32.8178 48.6839 32.8441 49.0277 32.8941 49.1658C32.9467 49.3038 33.0573 49.3715 33.2283 49.3715C33.3967 49.3715 33.4993 49.3095 33.5414 49.1827C33.5809 49.0559 33.602 48.7515 33.602 48.264V44.35Z" />
<path d="M42.9179 45.1418H40.4706V44.0879C40.4706 43.7216 40.4417 43.4737 40.3864 43.3412C40.3312 43.2116 40.2285 43.1468 40.0785 43.1468C39.9285 43.1468 39.8286 43.2031 39.7759 43.3187C39.7259 43.4342 39.6996 43.6906 39.6996 44.0879V48.3965C39.6996 48.7205 39.7391 48.9657 39.8154 49.1292C39.8917 49.2898 40.0049 49.3715 40.1549 49.3715C40.3312 49.3715 40.4496 49.2869 40.5127 49.1179C40.5733 48.9488 40.6048 48.6275 40.6048 48.1541V47.0693H42.9179C42.9153 47.7963 42.889 48.343 42.8442 48.7093C42.7995 49.0728 42.6548 49.4476 42.4127 49.8308C42.1732 50.214 41.8574 50.5014 41.4653 50.6958C41.0759 50.8931 40.5943 50.9889 40.0207 50.9889C39.2891 50.9889 38.7075 50.8565 38.2786 50.586C37.8523 50.3183 37.5471 49.9435 37.3708 49.4588C37.1918 48.9742 37.105 48.2866 37.105 47.3989V44.8037C37.105 44.0288 37.176 43.4455 37.3234 43.051C37.4681 42.6565 37.7786 42.3043 38.2549 41.9943C38.7286 41.6843 39.3075 41.5293 39.9891 41.5293C40.6654 41.5293 41.2443 41.6843 41.7232 41.9915C42.2022 42.2986 42.5232 42.6846 42.6811 43.1524C42.839 43.6202 42.9179 44.2824 42.9179 45.1418Z" />
<path d="M46.247 39.7305V42.2355C46.4707 42.0157 46.7128 41.8495 46.9706 41.7396C47.2312 41.6297 47.5074 41.5733 47.8022 41.5733C48.2574 41.5733 48.6443 41.6973 48.9627 41.9453C49.2811 42.1932 49.4758 42.4779 49.5468 42.8019C49.6179 43.126 49.6521 43.7149 49.6521 44.5744V50.8667H47.0575V44.4419C47.0575 43.9094 47.0338 43.5684 46.9838 43.4162C46.9338 43.2668 46.8233 43.1908 46.6522 43.1908C46.4943 43.1908 46.3864 43.2697 46.3312 43.4247C46.2759 43.5796 46.247 43.8896 46.247 44.3546V50.8667H43.6523V39.7305H46.247Z" />
<path d="M52.8042 45.232H50.3701V44.6177C50.3701 43.9133 50.4464 43.3666 50.5964 42.9862C50.749 42.603 51.0543 42.262 51.5122 41.9689C51.9701 41.6758 52.5674 41.5293 53.2989 41.5293C54.1778 41.5293 54.8384 41.6956 55.2857 42.0281C55.7304 42.3606 55.9962 42.7692 56.0883 43.2539C56.1778 43.7357 56.2225 44.7333 56.2225 46.2437V50.8227H53.6963V50.0111C53.5384 50.3352 53.3358 50.5804 53.0832 50.7438C52.8332 50.9072 52.5358 50.9889 52.1885 50.9889C51.7332 50.9889 51.3174 50.8537 50.9385 50.5803C50.5596 50.307 50.3701 49.7096 50.3701 48.7881V48.0386C50.3701 47.3539 50.4701 46.8889 50.6701 46.641C50.8727 46.393 51.3727 46.1055 52.1674 45.773C53.02 45.4152 53.4779 45.1756 53.5358 45.0516C53.5963 44.9276 53.6279 44.6769 53.6279 44.2965C53.6279 43.8174 53.5937 43.5074 53.5279 43.3637C53.4621 43.22 53.3516 43.1468 53.1963 43.1468C53.02 43.1468 52.9121 43.206 52.87 43.33C52.8253 43.4511 52.8042 43.7667 52.8042 44.2739V45.232ZM53.6279 46.4831C53.2121 46.81 52.97 47.0806 52.9042 47.3004C52.8384 47.523 52.8042 47.8385 52.8042 48.2499C52.8042 48.7233 52.8332 49.0277 52.8911 49.1658C52.949 49.3038 53.0647 49.3715 53.2358 49.3715C53.3989 49.3715 53.5042 49.3179 53.5516 49.2108C53.6016 49.1037 53.6279 48.8191 53.6279 48.3598V46.4831Z" />
<path d="M62.4094 44.6121H60.1095V44.1162C60.1095 43.6935 60.0884 43.4286 60.0437 43.3159C59.999 43.2031 59.8858 43.1468 59.7069 43.1468C59.5595 43.1468 59.4516 43.1975 59.3779 43.3017C59.3043 43.4032 59.27 43.5582 59.27 43.7667C59.27 44.0457 59.2858 44.2514 59.3227 44.381C59.3595 44.5106 59.47 44.6544 59.6516 44.8122C59.8332 44.9671 60.2068 45.1954 60.7726 45.4912C61.5252 45.8857 62.0199 46.2577 62.2568 46.6071C62.491 46.9565 62.6094 47.461 62.6094 48.126C62.6094 48.8699 62.5199 49.4306 62.341 49.8082C62.1594 50.1887 61.8594 50.4789 61.4358 50.6818C61.0147 50.8875 60.5068 50.9889 59.9121 50.9889C59.2516 50.9889 58.6885 50.879 58.2175 50.6592C57.749 50.4394 57.428 50.1408 57.2517 49.766C57.0754 49.3884 56.9885 48.8192 56.9885 48.0584V47.6187H59.2885V48.1964C59.2885 48.6867 59.3174 49.0051 59.3753 49.1517C59.4332 49.2982 59.5463 49.3715 59.72 49.3715C59.9042 49.3715 60.0305 49.3235 60.1042 49.2249C60.1779 49.1263 60.2147 48.9178 60.2147 48.6022C60.2147 48.1654 60.1674 47.8921 60.0726 47.7822C59.9726 47.6723 59.47 47.3483 58.5622 46.8072C57.799 46.3479 57.3359 45.9308 57.1675 45.5589C57.0017 45.1841 56.9175 44.7389 56.9175 44.226C56.9175 43.4962 57.007 42.9608 57.1885 42.6142C57.3675 42.2676 57.6727 41.9999 58.1016 41.8111C58.5332 41.6223 59.0332 41.5293 59.6016 41.5293C60.1674 41.5293 60.6489 41.6054 61.0463 41.7604C61.441 41.9125 61.7463 42.1155 61.9568 42.3691C62.1699 42.6199 62.2989 42.8566 62.3436 43.0707C62.3883 43.2877 62.4094 43.623 62.4094 44.0823V44.6121Z" />
<path d="M66.1218 40.4492V41.8864H66.8218V43.3319H66.1218V48.2153C66.1218 48.8155 66.1508 49.1508 66.2087 49.2185C66.2666 49.2889 66.506 49.3227 66.9297 49.3227V50.7937H65.885C65.2929 50.7937 64.8719 50.7683 64.6166 50.7148C64.364 50.664 64.143 50.5401 63.9509 50.3513C63.7561 50.1625 63.6377 49.9426 63.5904 49.6975C63.543 49.4523 63.5193 48.8747 63.5193 47.9673V43.3319H62.9614V41.8864H63.5193V40.4492H66.1218Z" />
<path d="M70.0003 39.7305V41.1816H67.3267V39.7305H70.0003ZM70.0003 41.7396V50.8667H67.3267V41.7396H70.0003Z" />
</svg>
