<svg width="22" height="23" viewBox="0 0 22 23" fill="none" xmlns="http://www.w3.org/2000/svg">
<path d="M8.92008 0.55957C4.03289 0.55957 0.0800781 4.51238 0.0800781 9.39957C0.0800781 14.2868 4.03289 18.2396 8.92008 18.2396C10.6649 18.2396 12.2798 17.7277 13.6488 16.8583L19.328 22.5375C19.7185 22.928 20.3517 22.928 20.7422 22.5375L21.5371 21.7426C21.9279 21.3517 21.9275 20.7178 21.5361 20.3275L15.9401 14.7458C17.0735 13.2589 17.7601 11.4166 17.7601 9.39957C17.7601 4.51238 13.8073 0.55957 8.92008 0.55957ZM8.92008 2.63957C12.6637 2.63957 15.6801 5.65598 15.6801 9.39957C15.6801 13.1432 12.6637 16.1596 8.92008 16.1596C5.17648 16.1596 2.16008 13.1432 2.16008 9.39957C2.16008 5.65598 5.17648 2.63957 8.92008 2.63957Z" fill="#5D78D9"/>
</svg>
