<svg width="21" height="24" viewBox="0 0 21 24" fill="none" xmlns="http://www.w3.org/2000/svg">
<path d="M3.18848 5.51282L4.52448 21.17C4.61279 22.2049 5.47858 23 6.51724 23H10.4503H14.4828C15.5214 23 16.3872 22.2049 16.4755 21.17L17.8115 5.51282M6.96859 3.44444H2.03419C1.46302 3.44444 1 3.90747 1 4.47863V4.47863C1 5.0498 1.46302 5.51282 2.03419 5.51282H10.4503H17.8115M6.96859 3.44444H10.4503H14.0314M6.96859 3.44444V3C6.96859 1.89543 7.86402 1 8.96859 1H10.4503H12.0314C13.136 1 14.0314 1.89543 14.0314 3V3.44444M7.66492 20.9316L6.4712 7.67521M10.4503 20.9316V7.67521M17.8115 5.51282H18.9658C19.537 5.51282 20 5.0498 20 4.47863V4.47863C20 3.90747 19.537 3.44444 18.9658 3.44444H14.0314M13.3351 20.9316L14.5288 7.67521" stroke="#5D78D9" stroke-width="1.5" stroke-linecap="round"/>
</svg>
