<svg viewBox="0 0 70 66" xmlns="http://www.w3.org/2000/svg" xmlns:xlink="http://www.w3.org/1999/xlink"><style>:root&gt;svg{display:none}:root&gt;svg:target{display:block}</style><svg fill="none" viewBox="0 0 34 35" id="footer-nav1" xmlns="http://www.w3.org/2000/svg"><path d="M15.222 6.833a8.89 8.89 0 018.89 8.89m1.17 10.052L33 33.5m-3.556-17.778c0 7.855-6.367 14.222-14.222 14.222C7.368 29.944 1 23.577 1 15.722 1 7.868 7.368 1.5 15.222 1.5c7.855 0 14.222 6.368 14.222 14.222z" stroke="#5D78D9" stroke-width="2" stroke-linecap="round" stroke-linejoin="round"/></svg><svg fill="none" viewBox="0 0 34 35" id="footer-nav2" xmlns="http://www.w3.org/2000/svg"><path d="M5.8 22.833C2.838 23.963 1 25.537 1 27.277 1 30.714 8.163 33.5 17 33.5s16-2.786 16-6.223c0-1.74-1.838-3.314-4.8-4.444M17 12.167h.018m10.649 0c0 7.224-8 10.666-10.667 16-2.667-5.334-10.667-8.776-10.667-16C6.333 6.276 11.11 1.5 17 1.5s10.667 4.776 10.667 10.667zm-8.89 0a1.778 1.778 0 11-3.555 0 1.778 1.778 0 013.556 0z" stroke="#5D78D9" stroke-width="2" stroke-linecap="round" stroke-linejoin="round"/></svg><svg fill="none" viewBox="0 0 34 35" id="footer-nav3" xmlns="http://www.w3.org/2000/svg"><path d="M6.866 5.056H33L29.444 17.5H8.781m22.441 7.111H9.89L6.333 1.5H1m10.667 30.222a1.778 1.778 0 11-3.556 0 1.778 1.778 0 013.556 0zm19.555 0a1.778 1.778 0 11-3.555 0 1.778 1.778 0 013.555 0z" stroke="#5D78D9" stroke-width="2" stroke-linecap="round" stroke-linejoin="round"/></svg><svg fill="none" viewBox="0 0 42 43" id="footer-nav4" xmlns="http://www.w3.org/2000/svg"><g filter="url(#dfilter0_d_901_5009)"><path d="M21.993 19.5a1 1 0 00-2 0h2zm-2 5.333a1 1 0 102 0h-2zm1-11.666a1 1 0 100 2v-2zm.018 2a1 1 0 100-2v2zM6.664 26.613l.895-.446-.895.445zM5 35.5l-.923-.385A1 1 0 005 36.5v-1zm14.992-16v5.333h2V19.5h-2zm1-4.333h.018v-2h-.018v2zM36 19.5c0 8.284-6.716 15-15 15v2c9.389 0 17-7.611 17-17h-2zm-30 0c0-8.284 6.716-15 15-15v-2c-9.389 0-17 7.611-17 17h2zm15-15c8.284 0 15 6.716 15 15h2c0-9.389-7.611-17-17-17v2zM7.56 26.167A14.934 14.934 0 016 19.5H4c0 2.713.636 5.28 1.768 7.558l1.791-.89zM21 34.5H5.002v2H21v-2zm-15.999 1c.923.385.923.384.924.384v-.002l.002-.004.007-.017a19.185 19.185 0 00.114-.284 37.37 37.37 0 001.162-3.41c.285-.997.543-2.098.656-3.114.107-.97.107-2.054-.307-2.886l-1.79.89c.14.285.21.87.11 1.776-.096.859-.322 1.84-.592 2.786a35.36 35.36 0 01-1.181 3.43l-.022.051-.005.013v.002L5 35.5z" fill="#5D78D9"/></g><defs><filter id="dfilter0_d_901_5009" x="0" y=".5" width="42" height="42" filterUnits="userSpaceOnUse" color-interpolation-filters="sRGB"><feFlood flood-opacity="0" result="BackgroundImageFix"/><feColorMatrix in="SourceAlpha" values="0 0 0 0 0 0 0 0 0 0 0 0 0 0 0 0 0 0 127 0" result="hardAlpha"/><feOffset dy="2"/><feGaussianBlur stdDeviation="2"/><feComposite in2="hardAlpha" operator="out"/><feColorMatrix values="0 0 0 0 0.176471 0 0 0 0 0.384314 0 0 0 0 0.682353 0 0 0 1 0"/><feBlend in2="BackgroundImageFix" result="effect1_dropShadow_901_5009"/><feBlend in="SourceGraphic" in2="effect1_dropShadow_901_5009" result="shape"/></filter></defs></svg><svg viewBox="0 0 70 66" id="logo" xmlns="http://www.w3.org/2000/svg"><path fill-rule="evenodd" clip-rule="evenodd" d="M1.317 33.73c-2.344-8.288-1.629-16.674 2.705-23.232C12.79-2.77 33.07-3.57 49.28 8.714c10.37 7.858 16.578 19.178 17.412 29.787H19.77c-1.913 0-3.467 1.664-3.467 3.713v7.425c0 2.05 1.554 3.713 3.467 3.713h43.99c2.42-4.426 0 0 0 0a23.16 23.16 0 01-.997 1.657c-8.768 13.268-29.046 14.067-45.257 1.784C11.507 52.247 6.9 46.542 3.922 40.486l3.453-12.128h6.12l1.12 3.596h5.038l-6.469-19.62H8.061L1.317 33.73zm42.208-9.035c0-2.424.634-4.32 1.903-5.688 1.269-1.368 3.023-2.052 5.261-2.052 2.248 0 4.008.684 5.28 2.052 1.274 1.368 1.91 3.264 1.91 5.688s-.636 4.322-1.91 5.694c-1.272 1.372-3.032 2.058-5.28 2.058-2.255 0-4.014-.684-5.274-2.051-1.26-1.367-1.89-3.268-1.89-5.701zm-9.778-4.356v-2.864h1.816v-4.102h4.429v4.102h2.264v2.864h-2.264v6.274c0 .96.116 1.594.348 1.905.232.31.668.466 1.306.466.14 0 .251-.002.33-.007a3.39 3.39 0 00.23-.02v3.024c-.464.098-.919.173-1.362.226-.444.054-.873.08-1.288.08-1.534 0-2.583-.401-3.147-1.206-.563-.803-.846-2.514-.846-5.134v-5.608h-1.816zM23.312 31.954l-5.013-14.479h4.69l2.587 10.083L28.2 17.475h4.664l-5.013 14.48h-4.54zm24.753-7.26c0 1.324.228 2.34.684 3.05.456.711 1.103 1.067 1.94 1.067.846 0 1.5-.358 1.96-1.073.46-.714.69-1.73.69-3.043 0-1.305-.23-2.314-.69-3.024-.46-.71-1.114-1.066-1.96-1.066-.846 0-1.495.354-1.946 1.06-.452.705-.678 1.716-.678 3.03zm-39.569-.399h4.005l-2.04-6.766-1.965 6.766z"/><path d="M23.067 41.708v2.023l-1.916 5.275h1.916v1.83h-4.43v-1.911l1.956-5.388h-1.755v-1.829h4.229zm2.876 3.524h-2.437v-.614c0-.705.077-1.251.23-1.632.152-.383.457-.724.915-1.017.458-.293 1.053-.44 1.787-.44.876 0 1.54.167 1.984.5.445.332.713.74.803 1.225.089.482.134 1.48.134 2.99v4.579h-2.524v-.812c-.158.324-.363.57-.613.733-.25.163-.55.245-.897.245-.453 0-.871-.135-1.25-.409-.38-.273-.569-.87-.569-1.792v-.75c0-.684.103-1.15.303-1.397.2-.248.7-.535 1.497-.868.853-.358 1.308-.597 1.369-.721.06-.124.09-.375.09-.755 0-.48-.035-.79-.1-.933a.34.34 0 00-.33-.217c-.176 0-.287.059-.329.183-.042.121-.063.437-.063.944v.958zm.821 1.251c-.416.327-.655.598-.723.817-.066.223-.098.539-.098.95 0 .473.029.778.087.916.058.138.171.206.342.206.163 0 .268-.054.318-.161.05-.107.074-.392.074-.851v-1.877zm6.098-4.787l-.044.806c.231-.327.487-.57.766-.73a1.78 1.78 0 01.91-.243c.403 0 .75.116 1.045.347.292.234.476.499.55.803.07.301.108.817.108 1.541v3.847c0 .828-.045 1.42-.137 1.77a1.471 1.471 0 01-.566.84c-.284.208-.629.312-1.032.312a1.73 1.73 0 01-.892-.24 2.512 2.512 0 01-.752-.718v2.093h-2.595V41.697h2.64zm.74 2.654c0-.564-.018-.904-.058-1.026-.04-.118-.145-.177-.321-.177-.171 0-.282.067-.331.206-.05.138-.074.47-.074.997v3.784c0 .55.026.894.076 1.032.053.138.163.206.334.206.169 0 .271-.063.313-.19.04-.126.061-.43.061-.918V44.35zm9.316.792H40.47v-1.054c0-.366-.03-.614-.085-.747-.055-.13-.158-.194-.308-.194s-.25.056-.302.172c-.05.115-.076.372-.076.769v4.309c0 .324.04.569.115.732.077.16.19.242.34.242.176 0 .295-.084.358-.253.06-.17.092-.49.092-.964V47.07h2.313c-.003.727-.029 1.274-.074 1.64-.044.364-.19.739-.431 1.122a2.31 2.31 0 01-.948.865c-.39.197-.87.293-1.444.293-.732 0-1.313-.133-1.742-.403a2.173 2.173 0 01-.908-1.127c-.18-.485-.266-1.172-.266-2.06v-2.595c0-.775.071-1.358.218-1.753.145-.395.456-.747.932-1.057.474-.31 1.052-.465 1.734-.465.676 0 1.255.155 1.734.462.48.308.8.694.958 1.161.158.468.237 1.13.237 1.99zm3.329-5.412v2.506c.224-.22.466-.386.724-.496.26-.11.536-.167.831-.167.455 0 .842.124 1.16.372.32.248.514.533.585.857.07.324.105.913.105 1.772v6.293h-2.595v-6.425c0-.533-.023-.874-.073-1.026-.05-.15-.16-.225-.332-.225-.158 0-.266.079-.32.234-.056.155-.085.465-.085.93v6.512h-2.595V39.73h2.595zm6.557 5.502H50.37v-.614c0-.705.076-1.251.226-1.632.153-.383.458-.724.916-1.017.458-.293 1.055-.44 1.787-.44.879 0 1.54.167 1.987.5.444.332.71.74.802 1.225.09.482.134 1.48.134 2.99v4.579h-2.526v-.812c-.158.324-.36.57-.613.733a1.6 1.6 0 01-.895.245c-.455 0-.87-.135-1.25-.409-.378-.273-.568-.87-.568-1.792v-.75c0-.684.1-1.15.3-1.397.203-.248.703-.535 1.497-.868.853-.358 1.31-.597 1.369-.721.06-.124.092-.375.092-.755 0-.48-.034-.79-.1-.933a.34.34 0 00-.332-.217c-.176 0-.284.059-.326.183-.045.121-.066.437-.066.944v.958zm.824 1.251c-.416.327-.658.598-.724.817-.066.223-.1.539-.1.95 0 .473.03.778.087.916.058.138.174.206.345.206.163 0 .268-.054.316-.161.05-.107.076-.392.076-.851v-1.877zm8.782-1.871h-2.3v-.496c0-.422-.022-.687-.066-.8-.045-.113-.158-.17-.337-.17-.148 0-.255.051-.33.156-.073.101-.107.256-.107.465 0 .279.016.484.053.614.036.13.147.273.329.431.181.155.555.383 1.12.68.753.394 1.248.766 1.485 1.115.234.35.352.854.352 1.519 0 .744-.09 1.305-.268 1.682-.182.38-.482.67-.905.874-.421.206-.93.307-1.524.307-.66 0-1.224-.11-1.694-.33-.469-.22-.79-.518-.966-.893-.177-.378-.264-.947-.264-1.708v-.44h2.3v.578c0 .49.03.81.087.956.058.146.171.22.345.22.184 0 .31-.048.384-.147.074-.099.11-.307.11-.623 0-.437-.047-.71-.141-.82-.1-.11-.603-.434-1.51-.975-.764-.46-1.227-.876-1.396-1.248-.165-.375-.25-.82-.25-1.333 0-.73.09-1.265.271-1.612.18-.346.485-.614.914-.803.431-.189.931-.282 1.5-.282.565 0 1.047.076 1.444.231.395.153.7.355.91.61.214.25.343.487.388.7.044.218.065.553.065 1.012v.53zm3.712-4.162v1.436h.7v1.446h-.7v4.883c0 .6.029.936.087 1.003.058.07.297.105.72.105v1.47h-1.044c-.592 0-1.013-.025-1.268-.078a1.305 1.305 0 01-.666-.364 1.217 1.217 0 01-.36-.654c-.048-.245-.072-.822-.072-1.73v-4.635h-.558v-1.446h.558V40.45h2.603zM70 39.73v1.452h-2.673V39.73H70zm0 2.01v9.127h-2.673V41.74H70z"/></svg><svg fill="none" viewBox="0 0 22 23" id="search" xmlns="http://www.w3.org/2000/svg"><path d="M8.92.56A8.834 8.834 0 00.08 9.4a8.834 8.834 0 008.84 8.84 8.78 8.78 0 004.729-1.382l5.679 5.68a1 1 0 001.414 0l.795-.795a1 1 0 000-1.415l-5.597-5.582A8.778 8.778 0 0017.76 9.4 8.834 8.834 0 008.92.56zm0 2.08a6.747 6.747 0 016.76 6.76 6.747 6.747 0 01-6.76 6.76A6.747 6.747 0 012.16 9.4a6.747 6.747 0 016.76-6.76z" fill="#5D78D9"/></svg></svg>