<svg viewBox="0 0 500 500" xmlns="http://www.w3.org/2000/svg" xmlns:xlink="http://www.w3.org/1999/xlink"><style>:root&gt;svg{display:none}:root&gt;svg:target{display:block}</style><svg fill="none" viewBox="0 0 15 26" id="arrow" xmlns="http://www.w3.org/2000/svg"><path d="M1 1l12 12L1 25"/></svg><svg viewBox="0 0 199.177 199.177" id="box" xmlns="http://www.w3.org/2000/svg"><g fill="#010002"><path d="M199.177 9.523H0v39.128h9.942v141.003h178.309V48.651h10.926V9.523zm-17.157 173.9H16.173V49.685H182.02v133.738zm10.923-141.006H6.231V15.754h186.712v26.663z"/><path d="M137.299 63.485H60.475v22.167h76.824V63.485zm-6.231 15.937H66.71v-9.706h64.358v9.706z"/></g></svg><svg fill="none" viewBox="0 0 25 22" id="cart" xmlns="http://www.w3.org/2000/svg"><g clip-path="url(#cclip0_1001_4256)"><path d="M1.186 1.385h4.16m-.001 0L8.865 15.4m.64 0h13.2m-11.599 5.54c1.325 0 2.4-1.094 2.4-2.444 0-1.35-1.075-2.444-2.4-2.444-1.326 0-2.4 1.094-2.4 2.444 0 1.35 1.074 2.445 2.4 2.445zm9.199 0c1.326 0 2.4-1.094 2.4-2.444 0-1.35-1.074-2.444-2.4-2.444-1.325 0-2.4 1.094-2.4 2.444 0 1.35 1.075 2.445 2.4 2.445zm.32-9.044H9.105c-.48 0-.96-.326-1.04-.815l-1.52-5.459c-.16-.733.32-1.385 1.04-1.385h14.48c.72 0 1.28.733 1.04 1.385l-1.52 5.46c0 .488-.4.814-.96.814z"/></g><defs><clipPath id="cclip0_1001_4256"><path fill="#fff" d="M.065 0h24v22h-24z"/></clipPath></defs></svg><svg fill="none" viewBox="0 0 19 13" id="checkbox" xmlns="http://www.w3.org/2000/svg"><path d="M1 5.5l6 6L17.5 1"/></svg><svg fill="none" viewBox="0 0 21 22" id="copy" xmlns="http://www.w3.org/2000/svg"><path d="M1 6v13a2 2 0 002 2h10a2 2 0 002-2V6a2 2 0 00-2-2H3a2 2 0 00-2 2z" stroke="#5D78D9" stroke-width="2"/><path d="M6 3v13a2 2 0 002 2h10a2 2 0 002-2V3a2 2 0 00-2-2H8a2 2 0 00-2 2z" stroke="#5D78D9" stroke-width="2"/></svg><svg fill="none" viewBox="0 0 34 35" id="footer-nav1" xmlns="http://www.w3.org/2000/svg"><path d="M15.222 6.833a8.89 8.89 0 018.89 8.89m1.17 10.052L33 33.5m-3.556-17.778c0 7.855-6.367 14.222-14.222 14.222C7.368 29.944 1 23.577 1 15.722 1 7.868 7.368 1.5 15.222 1.5c7.855 0 14.222 6.368 14.222 14.222z" stroke="#5D78D9" stroke-width="2" stroke-linecap="round" stroke-linejoin="round"/></svg><svg fill="none" viewBox="0 0 34 35" id="footer-nav2" xmlns="http://www.w3.org/2000/svg"><path d="M5.8 22.833C2.838 23.963 1 25.537 1 27.277 1 30.714 8.163 33.5 17 33.5s16-2.786 16-6.223c0-1.74-1.838-3.314-4.8-4.444M17 12.167h.018m10.649 0c0 7.224-8 10.666-10.667 16-2.667-5.334-10.667-8.776-10.667-16C6.333 6.276 11.11 1.5 17 1.5s10.667 4.776 10.667 10.667zm-8.89 0a1.778 1.778 0 11-3.555 0 1.778 1.778 0 013.556 0z" stroke="#5D78D9" stroke-width="2" stroke-linecap="round" stroke-linejoin="round"/></svg><svg fill="none" viewBox="0 0 34 35" id="footer-nav3" xmlns="http://www.w3.org/2000/svg"><path d="M6.866 5.056H33L29.444 17.5H8.781m22.441 7.111H9.89L6.333 1.5H1m10.667 30.222a1.778 1.778 0 11-3.556 0 1.778 1.778 0 013.556 0zm19.555 0a1.778 1.778 0 11-3.555 0 1.778 1.778 0 013.555 0z" stroke="#5D78D9" stroke-width="2" stroke-linecap="round" stroke-linejoin="round"/></svg><svg fill="none" viewBox="0 0 34 35" id="footer-nav4" xmlns="http://www.w3.org/2000/svg"><path d="M17 10.389h.018M17 15.722v8.89M33 17.5c0 8.837-7.163 16-16 16s-16-7.163-16-16 7.163-16 16-16 16 7.163 16 16z" stroke="#5D78D9" stroke-width="2" stroke-linecap="round" stroke-linejoin="round"/></svg><svg fill="none" viewBox="0 0 60 58" id="info" xmlns="http://www.w3.org/2000/svg"><g filter="url(#jfilter0_f_396_8769)"><rect x="20.933" y="20.5" width="18.133" height="17" rx="8.5" fill="#A9B7FF" fill-opacity=".57"/></g><path d="M30 26.692a1.29 1.29 0 01-.684-.194 1.174 1.174 0 01-.453-.518 1.088 1.088 0 01-.07-.666c.047-.224.164-.43.337-.591a1.26 1.26 0 01.63-.316c.238-.045.486-.022.71.066.226.087.418.235.553.425.135.19.208.412.208.64 0 .307-.13.6-.36.817a1.28 1.28 0 01-.871.337z" fill="#5D78D9"/><path d="M30 36.5a8.385 8.385 0 01-4.445-1.264 7.626 7.626 0 01-2.946-3.366 7.065 7.065 0 01-.455-4.333 7.368 7.368 0 012.19-3.84 8.178 8.178 0 014.095-2.053 8.496 8.496 0 014.623.427 7.913 7.913 0 013.59 2.762A7.171 7.171 0 0138 29c0 1.99-.843 3.897-2.343 5.303C34.157 35.71 32.122 36.5 30 36.5zm0-13.846a7.094 7.094 0 00-3.76 1.07 6.454 6.454 0 00-2.494 2.847 5.979 5.979 0 00-.385 3.667 6.234 6.234 0 001.852 3.25 6.92 6.92 0 003.466 1.736 7.19 7.19 0 003.912-.36 6.694 6.694 0 003.037-2.338A6.068 6.068 0 0036.77 29c0-1.683-.713-3.297-1.982-4.487-1.27-1.19-2.992-1.86-4.787-1.86z" fill="#5D78D9"/><path d="M30 33.615c-.327 0-.64-.122-.87-.338a1.118 1.118 0 01-.361-.816V29c0-.306.13-.6.36-.816.231-.217.544-.338.87-.338.327 0 .64.121.871.338.23.216.36.51.36.816v3.461c0 .306-.13.6-.36.816-.23.216-.544.338-.87.338z" fill="#5D78D9"/><defs><filter id="jfilter0_f_396_8769" x=".933" y=".5" width="58.133" height="57" filterUnits="userSpaceOnUse" color-interpolation-filters="sRGB"><feFlood flood-opacity="0" result="BackgroundImageFix"/><feBlend in="SourceGraphic" in2="BackgroundImageFix" result="shape"/><feGaussianBlur stdDeviation="10" result="effect1_foregroundBlur_396_8769"/></filter></defs></svg><svg viewBox="0 0 70 66" id="logo" xmlns="http://www.w3.org/2000/svg"><path fill-rule="evenodd" clip-rule="evenodd" d="M1.317 33.73c-2.344-8.288-1.629-16.674 2.705-23.232C12.79-2.77 33.07-3.57 49.28 8.714c10.37 7.858 16.578 19.178 17.412 29.787H19.77c-1.913 0-3.467 1.664-3.467 3.713v7.425c0 2.05 1.554 3.713 3.467 3.713h43.99c2.42-4.426 0 0 0 0a23.16 23.16 0 01-.997 1.657c-8.768 13.268-29.046 14.067-45.257 1.784C11.507 52.247 6.9 46.542 3.922 40.486l3.453-12.128h6.12l1.12 3.596h5.038l-6.469-19.62H8.061L1.317 33.73zm42.208-9.035c0-2.424.634-4.32 1.903-5.688 1.269-1.368 3.023-2.052 5.261-2.052 2.248 0 4.008.684 5.28 2.052 1.274 1.368 1.91 3.264 1.91 5.688s-.636 4.322-1.91 5.694c-1.272 1.372-3.032 2.058-5.28 2.058-2.255 0-4.014-.684-5.274-2.051-1.26-1.367-1.89-3.268-1.89-5.701zm-9.778-4.356v-2.864h1.816v-4.102h4.429v4.102h2.264v2.864h-2.264v6.274c0 .96.116 1.594.348 1.905.232.31.668.466 1.306.466.14 0 .251-.002.33-.007a3.39 3.39 0 00.23-.02v3.024c-.464.098-.919.173-1.362.226-.444.054-.873.08-1.288.08-1.534 0-2.583-.401-3.147-1.206-.563-.803-.846-2.514-.846-5.134v-5.608h-1.816zM23.312 31.954l-5.013-14.479h4.69l2.587 10.083L28.2 17.475h4.664l-5.013 14.48h-4.54zm24.753-7.26c0 1.324.228 2.34.684 3.05.456.711 1.103 1.067 1.94 1.067.846 0 1.5-.358 1.96-1.073.46-.714.69-1.73.69-3.043 0-1.305-.23-2.314-.69-3.024-.46-.71-1.114-1.066-1.96-1.066-.846 0-1.495.354-1.946 1.06-.452.705-.678 1.716-.678 3.03zm-39.569-.399h4.005l-2.04-6.766-1.965 6.766z"/><path d="M23.067 41.708v2.023l-1.916 5.275h1.916v1.83h-4.43v-1.911l1.956-5.388h-1.755v-1.829h4.229zm2.876 3.524h-2.437v-.614c0-.705.077-1.251.23-1.632.152-.383.457-.724.915-1.017.458-.293 1.053-.44 1.787-.44.876 0 1.54.167 1.984.5.445.332.713.74.803 1.225.089.482.134 1.48.134 2.99v4.579h-2.524v-.812c-.158.324-.363.57-.613.733-.25.163-.55.245-.897.245-.453 0-.871-.135-1.25-.409-.38-.273-.569-.87-.569-1.792v-.75c0-.684.103-1.15.303-1.397.2-.248.7-.535 1.497-.868.853-.358 1.308-.597 1.369-.721.06-.124.09-.375.09-.755 0-.48-.035-.79-.1-.933a.34.34 0 00-.33-.217c-.176 0-.287.059-.329.183-.042.121-.063.437-.063.944v.958zm.821 1.251c-.416.327-.655.598-.723.817-.066.223-.098.539-.098.95 0 .473.029.778.087.916.058.138.171.206.342.206.163 0 .268-.054.318-.161.05-.107.074-.392.074-.851v-1.877zm6.098-4.787l-.044.806c.231-.327.487-.57.766-.73a1.78 1.78 0 01.91-.243c.403 0 .75.116 1.045.347.292.234.476.499.55.803.07.301.108.817.108 1.541v3.847c0 .828-.045 1.42-.137 1.77a1.471 1.471 0 01-.566.84c-.284.208-.629.312-1.032.312a1.73 1.73 0 01-.892-.24 2.512 2.512 0 01-.752-.718v2.093h-2.595V41.697h2.64zm.74 2.654c0-.564-.018-.904-.058-1.026-.04-.118-.145-.177-.321-.177-.171 0-.282.067-.331.206-.05.138-.074.47-.074.997v3.784c0 .55.026.894.076 1.032.053.138.163.206.334.206.169 0 .271-.063.313-.19.04-.126.061-.43.061-.918V44.35zm9.316.792H40.47v-1.054c0-.366-.03-.614-.085-.747-.055-.13-.158-.194-.308-.194s-.25.056-.302.172c-.05.115-.076.372-.076.769v4.309c0 .324.04.569.115.732.077.16.19.242.34.242.176 0 .295-.084.358-.253.06-.17.092-.49.092-.964V47.07h2.313c-.003.727-.029 1.274-.074 1.64-.044.364-.19.739-.431 1.122a2.31 2.31 0 01-.948.865c-.39.197-.87.293-1.444.293-.732 0-1.313-.133-1.742-.403a2.173 2.173 0 01-.908-1.127c-.18-.485-.266-1.172-.266-2.06v-2.595c0-.775.071-1.358.218-1.753.145-.395.456-.747.932-1.057.474-.31 1.052-.465 1.734-.465.676 0 1.255.155 1.734.462.48.308.8.694.958 1.161.158.468.237 1.13.237 1.99zm3.329-5.412v2.506c.224-.22.466-.386.724-.496.26-.11.536-.167.831-.167.455 0 .842.124 1.16.372.32.248.514.533.585.857.07.324.105.913.105 1.772v6.293h-2.595v-6.425c0-.533-.023-.874-.073-1.026-.05-.15-.16-.225-.332-.225-.158 0-.266.079-.32.234-.056.155-.085.465-.085.93v6.512h-2.595V39.73h2.595zm6.557 5.502H50.37v-.614c0-.705.076-1.251.226-1.632.153-.383.458-.724.916-1.017.458-.293 1.055-.44 1.787-.44.879 0 1.54.167 1.987.5.444.332.71.74.802 1.225.09.482.134 1.48.134 2.99v4.579h-2.526v-.812c-.158.324-.36.57-.613.733a1.6 1.6 0 01-.895.245c-.455 0-.87-.135-1.25-.409-.378-.273-.568-.87-.568-1.792v-.75c0-.684.1-1.15.3-1.397.203-.248.703-.535 1.497-.868.853-.358 1.31-.597 1.369-.721.06-.124.092-.375.092-.755 0-.48-.034-.79-.1-.933a.34.34 0 00-.332-.217c-.176 0-.284.059-.326.183-.045.121-.066.437-.066.944v.958zm.824 1.251c-.416.327-.658.598-.724.817-.066.223-.1.539-.1.95 0 .473.03.778.087.916.058.138.174.206.345.206.163 0 .268-.054.316-.161.05-.107.076-.392.076-.851v-1.877zm8.782-1.871h-2.3v-.496c0-.422-.022-.687-.066-.8-.045-.113-.158-.17-.337-.17-.148 0-.255.051-.33.156-.073.101-.107.256-.107.465 0 .279.016.484.053.614.036.13.147.273.329.431.181.155.555.383 1.12.68.753.394 1.248.766 1.485 1.115.234.35.352.854.352 1.519 0 .744-.09 1.305-.268 1.682-.182.38-.482.67-.905.874-.421.206-.93.307-1.524.307-.66 0-1.224-.11-1.694-.33-.469-.22-.79-.518-.966-.893-.177-.378-.264-.947-.264-1.708v-.44h2.3v.578c0 .49.03.81.087.956.058.146.171.22.345.22.184 0 .31-.048.384-.147.074-.099.11-.307.11-.623 0-.437-.047-.71-.141-.82-.1-.11-.603-.434-1.51-.975-.764-.46-1.227-.876-1.396-1.248-.165-.375-.25-.82-.25-1.333 0-.73.09-1.265.271-1.612.18-.346.485-.614.914-.803.431-.189.931-.282 1.5-.282.565 0 1.047.076 1.444.231.395.153.7.355.91.61.214.25.343.487.388.7.044.218.065.553.065 1.012v.53zm3.712-4.162v1.436h.7v1.446h-.7v4.883c0 .6.029.936.087 1.003.058.07.297.105.72.105v1.47h-1.044c-.592 0-1.013-.025-1.268-.078a1.305 1.305 0 01-.666-.364 1.217 1.217 0 01-.36-.654c-.048-.245-.072-.822-.072-1.73v-4.635h-.558v-1.446h.558V40.45h2.603zM70 39.73v1.452h-2.673V39.73H70zm0 2.01v9.127h-2.673V41.74H70z"/></svg><svg fill="none" viewBox="0 0 22 23" id="search" xmlns="http://www.w3.org/2000/svg"><path d="M8.92.56A8.834 8.834 0 00.08 9.4a8.834 8.834 0 008.84 8.84 8.78 8.78 0 004.729-1.382l5.679 5.68a1 1 0 001.414 0l.795-.795a1 1 0 000-1.415l-5.597-5.582A8.778 8.778 0 0017.76 9.4 8.834 8.834 0 008.92.56zm0 2.08a6.747 6.747 0 016.76 6.76 6.747 6.747 0 01-6.76 6.76A6.747 6.747 0 012.16 9.4a6.747 6.747 0 016.76-6.76z" fill="#5D78D9"/></svg><svg viewBox="0 0 50 50" id="telegram" xmlns="http://www.w3.org/2000/svg"><path d="M25 2c12.703 0 23 10.297 23 23S37.703 48 25 48 2 37.703 2 25 12.297 2 25 2zm7.934 32.375c.423-1.298 2.405-14.234 2.65-16.783.074-.772-.17-1.285-.648-1.514-.578-.278-1.434-.139-2.427.219-1.362.491-18.774 7.884-19.78 8.312-.954.405-1.856.847-1.856 1.487 0 .45.267.703 1.003.966.766.273 2.695.858 3.834 1.172 1.097.303 2.346.04 3.046-.395.742-.461 9.305-6.191 9.92-6.693.614-.502 1.104.141.602.644-.502.502-6.38 6.207-7.155 6.997-.941.959-.273 1.953.358 2.351.721.454 5.906 3.932 6.687 4.49.781.558 1.573.811 2.298.811.725 0 1.107-.955 1.468-2.064z"/></svg><svg fill="none" viewBox="0 0 21 24" id="trash" xmlns="http://www.w3.org/2000/svg"><path d="M3.188 5.513L4.524 21.17A2 2 0 006.517 23h7.966a2 2 0 001.992-1.83l1.336-15.657M6.97 3.444H2.034C1.463 3.444 1 3.907 1 4.48v0c0 .57.463 1.034 1.034 1.034h15.777M6.97 3.444h7.06m-7.062 0V3a2 2 0 012-2h3.062a2 2 0 012 2v.444M7.665 20.932L6.47 7.675m3.98 13.257V7.675m7.36-2.162h1.155c.571 0 1.034-.463 1.034-1.034v0c0-.572-.463-1.035-1.034-1.035H14.03m-.696 17.488L14.53 7.675" stroke="#5D78D9" stroke-width="1.5" stroke-linecap="round"/></svg><svg viewBox="0 0 30 30" id="viber" xmlns="http://www.w3.org/2000/svg"><path d="M25.362 8.32c-.409-1.459-1.218-2.614-2.405-3.431-1.498-1.032-3.221-1.398-4.709-1.62-2.059-.307-3.924-.35-5.7-.133-1.666.204-2.92.53-4.065 1.056-2.243 1.03-3.589 2.698-4 4.956a31.004 31.004 0 00-.412 3.032c-.18 2.185-.017 4.119.499 5.911.502 1.747 1.38 2.996 2.684 3.816.333.209.757.36 1.169.506.206.073.404.145.577.221v3.53a.835.835 0 001.419.599l3.257-3.168c.142-.162.142-.162.288-.165a99.47 99.47 0 003.38-.126c1.369-.075 2.955-.207 4.449-.83 1.367-.571 2.365-1.477 2.964-2.692.625-1.268.997-2.642 1.136-4.199.244-2.738.07-5.114-.531-7.263zm-5.671 10.42c-.327.535-.817.905-1.393 1.145-.421.176-.851.139-1.266-.037-3.484-1.474-6.215-3.798-8.021-7.137-.372-.688-.631-1.437-.928-2.164-.061-.15-.056-.325-.083-.488.026-1.175.927-1.836 1.837-2.036.348-.077.656.046.914.293a8.042 8.042 0 011.704 2.358c.186.389.102.733-.215 1.022-.065.06-.134.116-.205.169-.723.544-.829.955-.444 1.774.656 1.393 1.745 2.328 3.154 2.908.371.153.721.077 1.005-.224.038-.04.081-.079.109-.125.556-.927 1.361-.835 2.105-.306.489.347.963.713 1.447 1.067.734.541.728 1.049.28 1.781zm-4.18-9.597c-.187 0-.375.015-.559.046a.572.572 0 11-.188-1.128 4.494 4.494 0 015.174 5.176.572.572 0 01-1.127-.189 3.35 3.35 0 00-3.3-3.905zM18 12.857a.571.571 0 01-1.142 0c0-.945-.769-1.714-1.714-1.714a.571.571 0 010-1.142A2.859 2.859 0 0118 12.857zm3.846.697a.57.57 0 01-.684.431.571.571 0 01-.431-.683 5.045 5.045 0 00-6.034-6.034.57.57 0 11-.252-1.114 6.188 6.188 0 017.401 7.4z"/></svg><svg viewBox="0 0 30 30" id="whatsapp" xmlns="http://www.w3.org/2000/svg"><path d="M15 3C8.373 3 3 8.373 3 15c0 2.251.632 4.35 1.71 6.15L3.108 27l5.975-1.568A11.935 11.935 0 0015 27c6.627 0 12-5.373 12-12S21.627 3 15 3zm-4.107 6.402c.195 0 .395 0 .568.008.214.005.447.02.67.514.265.586.842 2.056.916 2.205.074.149.126.324.023.52-.098.2-.149.32-.293.497-.149.172-.312.386-.447.516-.149.15-.303.312-.13.61.171.296.769 1.27 1.652 2.056 1.135 1.014 2.092 1.326 2.39 1.475.298.149.47.126.643-.074.177-.195.743-.865.943-1.163.195-.298.394-.246.664-.148.274.098 1.735.818 2.033.967.298.149.494.223.569.344.077.125.077.72-.17 1.414-.247.693-1.46 1.363-2.004 1.41-.55.05-1.061.246-3.568-.74-3.024-1.191-4.932-4.289-5.08-4.489-.15-.195-1.211-1.61-1.211-3.07 0-1.465.768-2.183 1.037-2.48a1.09 1.09 0 01.795-.372z"/></svg></svg>